<?xml version="1.0" encoding="utf-8"?>
<!DOCTYPE svg PUBLIC "-//W3C//DTD SVG 1.1//EN" "http://www.w3.org/Graphics/SVG/1.1/DTD/svg11.dtd">
<svg version="1.1" id="Layer_1" xmlns="http://www.w3.org/2000/svg" xmlns:xlink="http://www.w3.org/1999/xlink" x="0px" y="0px"
	 width="440.0mm" height="440.0mm"
	 viewBox="0 0 4400.0 4400.0"
	 xml:space="preserve">
<g>
<circle  fill="black"	stroke="black"	r="2200.0" cx="2200.0" cy="2200.0" />
<circle  fill="gray"	stroke="gray"	r="50.0" cx="4032.057" cy="2052.316" />
<circle  fill="white"	stroke="black"	r="30.0" cx="4032.057" cy="2052.316" />
<circle  fill="gray"	stroke="gray"	r="50.0" cx="3595.473" cy="2087.51" />
<circle  fill="white"	stroke="black"	r="30.0" cx="3595.473" cy="2087.51" />
<circle  fill="gray"	stroke="gray"	r="50.0" cx="4038.0" cy="2200.0" />
<circle  fill="white"	stroke="black"	r="30.0" cx="4038.0" cy="2200.0" />
<circle  fill="gray"	stroke="gray"	r="50.0" cx="3600.0" cy="2200.0" />
<circle  fill="white"	stroke="black"	r="30.0" cx="3600.0" cy="2200.0" />
<circle  fill="gray"	stroke="gray"	r="50.0" cx="4032.057" cy="2347.684" />
<circle  fill="white"	stroke="black"	r="30.0" cx="4032.057" cy="2347.684" />
<circle  fill="gray"	stroke="gray"	r="50.0" cx="3595.473" cy="2312.49" />
<circle  fill="white"	stroke="black"	r="30.0" cx="3595.473" cy="2312.49" />
<circle  fill="gray"	stroke="gray"	r="50.0" cx="4130.0" cy="2200.0" />
<circle  fill="white"	stroke="black"	r="30.0" cx="4130.0" cy="2200.0" />
<circle  fill="gray"	stroke="gray"	r="50.0" cx="4238.77" cy="2414.283" />
<circle  fill="white"	stroke="black"	r="30.0" cx="4238.77" cy="2414.283" />
<circle  fill="gray"	stroke="gray"	r="50.0" cx="4205.203" cy="2626.219" />
<circle  fill="white"	stroke="black"	r="30.0" cx="4205.203" cy="2626.219" />
<circle  fill="gray"	stroke="gray"	r="50.0" cx="4149.666" cy="2833.485" />
<circle  fill="white"	stroke="black"	r="30.0" cx="4149.666" cy="2833.485" />
<circle  fill="gray"	stroke="gray"	r="50.0" cx="4072.768" cy="3033.81" />
<circle  fill="white"	stroke="black"	r="30.0" cx="4072.768" cy="3033.81" />
<circle  fill="gray"	stroke="gray"	r="50.0" cx="3881.076" cy="2943.12" />
<circle  fill="white"	stroke="black"	r="30.0" cx="3881.076" cy="2943.12" />
<circle  fill="gray"	stroke="gray"	r="50.0" cx="3480.472" cy="2766.032" />
<circle  fill="white"	stroke="black"	r="30.0" cx="3480.472" cy="2766.032" />
<circle  fill="gray"	stroke="gray"	r="50.0" cx="3836.719" cy="3036.298" />
<circle  fill="white"	stroke="black"	r="30.0" cx="3836.719" cy="3036.298" />
<circle  fill="gray"	stroke="gray"	r="50.0" cx="3684.099" cy="3284.295" />
<circle  fill="white"	stroke="black"	r="30.0" cx="3684.099" cy="3284.295" />
<circle  fill="gray"	stroke="gray"	r="50.0" cx="3403.305" cy="2915.582" />
<circle  fill="gray"	stroke="gray"	r="50.0" cx="3381.033" cy="2951.771" />
<circle  fill="white"	stroke="black"	r="30.0" cx="3403.305" cy="2915.582" />
<circle  fill="white"	stroke="black"	r="30.0" cx="3381.033" cy="2951.771" />
<circle  fill="gray"	stroke="gray"	r="50.0" cx="3871.429" cy="3165.0" />
<circle  fill="white"	stroke="black"	r="30.0" cx="3871.429" cy="3165.0" />
<circle  fill="gray"	stroke="gray"	r="50.0" cx="3858.485" cy="3404.96" />
<circle  fill="white"	stroke="black"	r="30.0" cx="3858.485" cy="3404.96" />
<circle  fill="gray"	stroke="gray"	r="50.0" cx="3723.447" cy="3571.718" />
<circle  fill="white"	stroke="black"	r="30.0" cx="3723.447" cy="3571.718" />
<circle  fill="gray"	stroke="gray"	r="50.0" cx="3571.718" cy="3723.447" />
<circle  fill="white"	stroke="black"	r="30.0" cx="3571.718" cy="3723.447" />
<circle  fill="gray"	stroke="gray"	r="50.0" cx="3404.96" cy="3858.485" />
<circle  fill="white"	stroke="black"	r="30.0" cx="3404.96" cy="3858.485" />
<circle  fill="gray"	stroke="gray"	r="50.0" cx="3242.204" cy="3713.954" />
<circle  fill="white"	stroke="black"	r="30.0" cx="3242.204" cy="3713.954" />
<circle  fill="gray"	stroke="gray"	r="50.0" cx="2990.02" cy="3859.552" />
<circle  fill="white"	stroke="black"	r="30.0" cx="2990.02" cy="3859.552" />
<circle  fill="gray"	stroke="gray"	r="50.0" cx="2918.32" cy="3401.673" />
<circle  fill="gray"	stroke="gray"	r="50.0" cx="2881.519" cy="3422.919" />
<circle  fill="white"	stroke="black"	r="30.0" cx="2918.32" cy="3401.673" />
<circle  fill="white"	stroke="black"	r="30.0" cx="2881.519" cy="3422.919" />
<circle  fill="gray"	stroke="gray"	r="50.0" cx="3165.0" cy="3871.429" />
<circle  fill="white"	stroke="black"	r="30.0" cx="3165.0" cy="3871.429" />
<circle  fill="gray"	stroke="gray"	r="50.0" cx="3033.81" cy="4072.768" />
<circle  fill="white"	stroke="black"	r="30.0" cx="3033.81" cy="4072.768" />
<circle  fill="gray"	stroke="gray"	r="50.0" cx="2833.485" cy="4149.666" />
<circle  fill="white"	stroke="black"	r="30.0" cx="2833.485" cy="4149.666" />
<circle  fill="gray"	stroke="gray"	r="50.0" cx="2626.219" cy="4205.203" />
<circle  fill="white"	stroke="black"	r="30.0" cx="2626.219" cy="4205.203" />
<circle  fill="gray"	stroke="gray"	r="50.0" cx="2414.283" cy="4238.77" />
<circle  fill="white"	stroke="black"	r="30.0" cx="2414.283" cy="4238.77" />
<circle  fill="gray"	stroke="gray"	r="50.0" cx="2396.978" cy="4027.415" />
<circle  fill="white"	stroke="black"	r="30.0" cx="2396.978" cy="4027.415" />
<circle  fill="gray"	stroke="gray"	r="50.0" cx="2105.896" cy="4035.589" />
<circle  fill="white"	stroke="black"	r="30.0" cx="2105.896" cy="4035.589" />
<circle  fill="gray"	stroke="gray"	r="50.0" cx="2260.536" cy="3598.691" />
<circle  fill="gray"	stroke="gray"	r="50.0" cx="2218.06" cy="3599.884" />
<circle  fill="white"	stroke="black"	r="30.0" cx="2260.536" cy="3598.691" />
<circle  fill="white"	stroke="black"	r="30.0" cx="2218.06" cy="3599.884" />
<circle  fill="gray"	stroke="gray"	r="50.0" cx="2003.022" cy="4027.415" />
<circle  fill="white"	stroke="black"	r="30.0" cx="2003.022" cy="4027.415" />
<circle  fill="gray"	stroke="gray"	r="50.0" cx="2049.963" cy="3591.937" />
<circle  fill="white"	stroke="black"	r="30.0" cx="2049.963" cy="3591.937" />
<circle  fill="gray"	stroke="gray"	r="50.0" cx="2200.0" cy="4130.0" />
<circle  fill="white"	stroke="black"	r="30.0" cx="2200.0" cy="4130.0" />
<circle  fill="gray"	stroke="gray"	r="50.0" cx="1985.717" cy="4238.77" />
<circle  fill="white"	stroke="black"	r="30.0" cx="1985.717" cy="4238.77" />
<circle  fill="gray"	stroke="gray"	r="50.0" cx="1773.781" cy="4205.203" />
<circle  fill="white"	stroke="black"	r="30.0" cx="1773.781" cy="4205.203" />
<circle  fill="gray"	stroke="gray"	r="50.0" cx="1566.515" cy="4149.666" />
<circle  fill="white"	stroke="black"	r="30.0" cx="1566.515" cy="4149.666" />
<circle  fill="gray"	stroke="gray"	r="50.0" cx="1366.19" cy="4072.768" />
<circle  fill="white"	stroke="black"	r="30.0" cx="1366.19" cy="4072.768" />
<circle  fill="gray"	stroke="gray"	r="50.0" cx="1525.073" cy="3909.596" />
<circle  fill="white"	stroke="black"	r="30.0" cx="1525.073" cy="3909.596" />
<circle  fill="gray"	stroke="gray"	r="50.0" cx="1263.542" cy="3781.547" />
<circle  fill="white"	stroke="black"	r="30.0" cx="1263.542" cy="3781.547" />
<circle  fill="gray"	stroke="gray"	r="50.0" cx="1603.525" cy="3466.577" />
<circle  fill="gray"	stroke="gray"	r="50.0" cx="1565.36" cy="3447.891" />
<circle  fill="white"	stroke="black"	r="30.0" cx="1603.525" cy="3466.577" />
<circle  fill="white"	stroke="black"	r="30.0" cx="1565.36" cy="3447.891" />
<circle  fill="gray"	stroke="gray"	r="50.0" cx="1176.254" cy="3726.495" />
<circle  fill="white"	stroke="black"	r="30.0" cx="1176.254" cy="3726.495" />
<circle  fill="gray"	stroke="gray"	r="50.0" cx="1420.215" cy="3362.728" />
<circle  fill="white"	stroke="black"	r="30.0" cx="1420.215" cy="3362.728" />
<circle  fill="gray"	stroke="gray"	r="50.0" cx="1056.91" cy="3639.302" />
<circle  fill="white"	stroke="black"	r="30.0" cx="1056.91" cy="3639.302" />
<circle  fill="gray"	stroke="gray"	r="50.0" cx="1329.311" cy="3296.312" />
<circle  fill="white"	stroke="black"	r="30.0" cx="1329.311" cy="3296.312" />
<circle  fill="gray"	stroke="gray"	r="50.0" cx="1235.0" cy="3871.429" />
<circle  fill="white"	stroke="black"	r="30.0" cx="1235.0" cy="3871.429" />
<circle  fill="gray"	stroke="gray"	r="50.0" cx="995.04" cy="3858.485" />
<circle  fill="white"	stroke="black"	r="30.0" cx="995.04" cy="3858.485" />
<circle  fill="gray"	stroke="gray"	r="50.0" cx="828.282" cy="3723.447" />
<circle  fill="white"	stroke="black"	r="30.0" cx="828.282" cy="3723.447" />
<circle  fill="gray"	stroke="gray"	r="50.0" cx="676.553" cy="3571.718" />
<circle  fill="white"	stroke="black"	r="30.0" cx="676.553" cy="3571.718" />
<circle  fill="gray"	stroke="gray"	r="50.0" cx="541.515" cy="3404.96" />
<circle  fill="white"	stroke="black"	r="30.0" cx="541.515" cy="3404.96" />
<circle  fill="gray"	stroke="gray"	r="50.0" cx="807.823" cy="3400.037" />
<circle  fill="white"	stroke="black"	r="30.0" cx="807.823" cy="3400.037" />
<circle  fill="gray"	stroke="gray"	r="50.0" cx="635.77" cy="3165.105" />
<circle  fill="white"	stroke="black"	r="30.0" cx="635.77" cy="3165.105" />
<circle  fill="gray"	stroke="gray"	r="50.0" cx="1083.19" cy="3044.237" />
<circle  fill="gray"	stroke="gray"	r="50.0" cx="1058.083" cy="3009.954" />
<circle  fill="white"	stroke="black"	r="30.0" cx="1083.19" cy="3044.237" />
<circle  fill="white"	stroke="black"	r="30.0" cx="1058.083" cy="3009.954" />
<circle  fill="gray"	stroke="gray"	r="50.0" cx="584.069" cy="3075.792" />
<circle  fill="white"	stroke="black"	r="30.0" cx="584.069" cy="3075.792" />
<circle  fill="gray"	stroke="gray"	r="50.0" cx="969.149" cy="2867.088" />
<circle  fill="white"	stroke="black"	r="30.0" cx="969.149" cy="2867.088" />
<circle  fill="gray"	stroke="gray"	r="50.0" cx="518.924" cy="2943.12" />
<circle  fill="white"	stroke="black"	r="30.0" cx="518.924" cy="2943.12" />
<circle  fill="gray"	stroke="gray"	r="50.0" cx="919.528" cy="2766.032" />
<circle  fill="white"	stroke="black"	r="30.0" cx="919.528" cy="2766.032" />
<circle  fill="gray"	stroke="gray"	r="50.0" cx="464.649" cy="2805.642" />
<circle  fill="white"	stroke="black"	r="30.0" cx="464.649" cy="2805.642" />
<circle  fill="gray"	stroke="gray"	r="50.0" cx="878.188" cy="2661.316" />
<circle  fill="white"	stroke="black"	r="30.0" cx="878.188" cy="2661.316" />
<circle  fill="gray"	stroke="gray"	r="50.0" cx="528.571" cy="3165.0" />
<circle  fill="white"	stroke="black"	r="30.0" cx="528.571" cy="3165.0" />
<circle  fill="gray"	stroke="gray"	r="50.0" cx="327.232" cy="3033.81" />
<circle  fill="white"	stroke="black"	r="30.0" cx="327.232" cy="3033.81" />
<circle  fill="gray"	stroke="gray"	r="50.0" cx="250.334" cy="2833.485" />
<circle  fill="white"	stroke="black"	r="30.0" cx="250.334" cy="2833.485" />
<circle  fill="gray"	stroke="gray"	r="50.0" cx="194.797" cy="2626.219" />
<circle  fill="white"	stroke="black"	r="30.0" cx="194.797" cy="2626.219" />
<circle  fill="gray"	stroke="gray"	r="50.0" cx="161.23" cy="2414.283" />
<circle  fill="white"	stroke="black"	r="30.0" cx="161.23" cy="2414.283" />
<circle  fill="gray"	stroke="gray"	r="50.0" cx="371.851" cy="2390.043" />
<circle  fill="white"	stroke="black"	r="30.0" cx="371.851" cy="2390.043" />
<circle  fill="gray"	stroke="gray"	r="50.0" cx="807.504" cy="2344.755" />
<circle  fill="white"	stroke="black"	r="30.0" cx="807.504" cy="2344.755" />
<circle  fill="gray"	stroke="gray"	r="50.0" cx="363.873" cy="2282.959" />
<circle  fill="white"	stroke="black"	r="30.0" cx="363.873" cy="2282.959" />
<circle  fill="gray"	stroke="gray"	r="50.0" cx="801.427" cy="2263.19" />
<circle  fill="white"	stroke="black"	r="30.0" cx="801.427" cy="2263.19" />
<circle  fill="gray"	stroke="gray"	r="50.0" cx="371.851" cy="2009.957" />
<circle  fill="white"	stroke="black"	r="30.0" cx="371.851" cy="2009.957" />
<circle  fill="gray"	stroke="gray"	r="50.0" cx="807.504" cy="2055.245" />
<circle  fill="white"	stroke="black"	r="30.0" cx="807.504" cy="2055.245" />
<circle  fill="gray"	stroke="gray"	r="50.0" cx="270.0" cy="2200.0" />
<circle  fill="white"	stroke="black"	r="30.0" cx="270.0" cy="2200.0" />
<circle  fill="gray"	stroke="gray"	r="50.0" cx="161.23" cy="1985.717" />
<circle  fill="white"	stroke="black"	r="30.0" cx="161.23" cy="1985.717" />
<circle  fill="gray"	stroke="gray"	r="50.0" cx="194.797" cy="1773.781" />
<circle  fill="white"	stroke="black"	r="30.0" cx="194.797" cy="1773.781" />
<circle  fill="gray"	stroke="gray"	r="50.0" cx="250.334" cy="1566.515" />
<circle  fill="white"	stroke="black"	r="30.0" cx="250.334" cy="1566.515" />
<circle  fill="gray"	stroke="gray"	r="50.0" cx="327.232" cy="1366.19" />
<circle  fill="white"	stroke="black"	r="30.0" cx="327.232" cy="1366.19" />
<circle  fill="gray"	stroke="gray"	r="50.0" cx="544.365" cy="1401.804" />
<circle  fill="white"	stroke="black"	r="30.0" cx="544.365" cy="1401.804" />
<circle  fill="gray"	stroke="gray"	r="50.0" cx="938.907" cy="1592.016" />
<circle  fill="white"	stroke="black"	r="30.0" cx="938.907" cy="1592.016" />
<circle  fill="gray"	stroke="gray"	r="50.0" cx="680.924" cy="1165.276" />
<circle  fill="white"	stroke="black"	r="30.0" cx="680.924" cy="1165.276" />
<circle  fill="gray"	stroke="gray"	r="50.0" cx="1042.924" cy="1411.854" />
<circle  fill="white"	stroke="black"	r="30.0" cx="1042.924" cy="1411.854" />
<circle  fill="gray"	stroke="gray"	r="50.0" cx="528.571" cy="1235.0" />
<circle  fill="white"	stroke="black"	r="30.0" cx="528.571" cy="1235.0" />
<circle  fill="gray"	stroke="gray"	r="50.0" cx="541.515" cy="995.04" />
<circle  fill="white"	stroke="black"	r="30.0" cx="541.515" cy="995.04" />
<circle  fill="gray"	stroke="gray"	r="50.0" cx="676.553" cy="828.282" />
<circle  fill="white"	stroke="black"	r="30.0" cx="676.553" cy="828.282" />
<circle  fill="gray"	stroke="gray"	r="50.0" cx="828.282" cy="676.553" />
<circle  fill="white"	stroke="black"	r="30.0" cx="828.282" cy="676.553" />
<circle  fill="gray"	stroke="gray"	r="50.0" cx="995.04" cy="541.515" />
<circle  fill="white"	stroke="black"	r="30.0" cx="995.04" cy="541.515" />
<circle  fill="gray"	stroke="gray"	r="50.0" cx="1121.344" cy="711.798" />
<circle  fill="white"	stroke="black"	r="30.0" cx="1121.344" cy="711.798" />
<circle  fill="gray"	stroke="gray"	r="50.0" cx="1378.39" cy="1066.44" />
<circle  fill="white"	stroke="black"	r="30.0" cx="1378.39" cy="1066.44" />
<circle  fill="gray"	stroke="gray"	r="50.0" cx="1353.781" cy="568.388" />
<circle  fill="white"	stroke="black"	r="30.0" cx="1353.781" cy="568.388" />
<circle  fill="gray"	stroke="gray"	r="50.0" cx="1555.437" cy="957.205" />
<circle  fill="white"	stroke="black"	r="30.0" cx="1555.437" cy="957.205" />
<circle  fill="gray"	stroke="gray"	r="50.0" cx="1450.507" cy="521.755" />
<circle  fill="white"	stroke="black"	r="30.0" cx="1450.507" cy="521.755" />
<circle  fill="gray"	stroke="gray"	r="50.0" cx="1629.113" cy="921.685" />
<circle  fill="white"	stroke="black"	r="30.0" cx="1629.113" cy="921.685" />
<circle  fill="gray"	stroke="gray"	r="50.0" cx="1235.0" cy="528.571" />
<circle  fill="white"	stroke="black"	r="30.0" cx="1235.0" cy="528.571" />
<circle  fill="gray"	stroke="gray"	r="50.0" cx="1366.19" cy="327.232" />
<circle  fill="white"	stroke="black"	r="30.0" cx="1366.19" cy="327.232" />
<circle  fill="gray"	stroke="gray"	r="50.0" cx="1566.515" cy="250.334" />
<circle  fill="white"	stroke="black"	r="30.0" cx="1566.515" cy="250.334" />
<circle  fill="gray"	stroke="gray"	r="50.0" cx="1773.781" cy="194.797" />
<circle  fill="white"	stroke="black"	r="30.0" cx="1773.781" cy="194.797" />
<circle  fill="gray"	stroke="gray"	r="50.0" cx="1985.717" cy="161.23" />
<circle  fill="white"	stroke="black"	r="30.0" cx="1985.717" cy="161.23" />
<circle  fill="gray"	stroke="gray"	r="50.0" cx="1936.606" cy="380.971" />
<circle  fill="white"	stroke="black"	r="30.0" cx="1936.606" cy="380.971" />
<circle  fill="gray"	stroke="gray"	r="50.0" cx="1999.373" cy="814.45" />
<circle  fill="white"	stroke="black"	r="30.0" cx="1999.373" cy="814.45" />
<circle  fill="gray"	stroke="gray"	r="50.0" cx="2209.066" cy="362.022" />
<circle  fill="white"	stroke="black"	r="30.0" cx="2209.066" cy="362.022" />
<circle  fill="gray"	stroke="gray"	r="50.0" cx="2206.905" cy="800.017" />
<circle  fill="white"	stroke="black"	r="30.0" cx="2206.905" cy="800.017" />
<circle  fill="gray"	stroke="gray"	r="50.0" cx="2316.383" cy="365.688" />
<circle  fill="white"	stroke="black"	r="30.0" cx="2316.383" cy="365.688" />
<circle  fill="gray"	stroke="gray"	r="50.0" cx="2288.649" cy="802.809" />
<circle  fill="white"	stroke="black"	r="30.0" cx="2288.649" cy="802.809" />
<circle  fill="gray"	stroke="gray"	r="50.0" cx="2463.394" cy="380.971" />
<circle  fill="white"	stroke="black"	r="30.0" cx="2463.394" cy="380.971" />
<circle  fill="gray"	stroke="gray"	r="50.0" cx="2400.627" cy="814.45" />
<circle  fill="white"	stroke="black"	r="30.0" cx="2400.627" cy="814.45" />
<circle  fill="gray"	stroke="gray"	r="50.0" cx="2200.0" cy="270.0" />
<circle  fill="white"	stroke="black"	r="30.0" cx="2200.0" cy="270.0" />
<circle  fill="gray"	stroke="gray"	r="50.0" cx="2414.283" cy="161.23" />
<circle  fill="white"	stroke="black"	r="30.0" cx="2414.283" cy="161.23" />
<circle  fill="gray"	stroke="gray"	r="50.0" cx="2626.219" cy="194.797" />
<circle  fill="white"	stroke="black"	r="30.0" cx="2626.219" cy="194.797" />
<circle  fill="gray"	stroke="gray"	r="50.0" cx="2833.485" cy="250.334" />
<circle  fill="white"	stroke="black"	r="30.0" cx="2833.485" cy="250.334" />
<circle  fill="gray"	stroke="gray"	r="50.0" cx="3033.81" cy="327.232" />
<circle  fill="white"	stroke="black"	r="30.0" cx="3033.81" cy="327.232" />
<circle  fill="gray"	stroke="gray"	r="50.0" cx="3119.0" cy="608.245" />
<circle  fill="white"	stroke="black"	r="30.0" cx="3119.0" cy="608.245" />
<circle  fill="gray"	stroke="gray"	r="50.0" cx="2900.0" cy="987.564" />
<circle  fill="white"	stroke="black"	r="30.0" cx="2900.0" cy="987.564" />
<circle  fill="gray"	stroke="gray"	r="50.0" cx="3165.0" cy="528.571" />
<circle  fill="white"	stroke="black"	r="30.0" cx="3165.0" cy="528.571" />
<circle  fill="gray"	stroke="gray"	r="50.0" cx="3404.96" cy="541.515" />
<circle  fill="white"	stroke="black"	r="30.0" cx="3404.96" cy="541.515" />
<circle  fill="gray"	stroke="gray"	r="50.0" cx="3571.718" cy="676.553" />
<circle  fill="white"	stroke="black"	r="30.0" cx="3571.718" cy="676.553" />
<circle  fill="gray"	stroke="gray"	r="50.0" cx="3723.447" cy="828.282" />
<circle  fill="white"	stroke="black"	r="30.0" cx="3723.447" cy="828.282" />
<circle  fill="gray"	stroke="gray"	r="50.0" cx="3858.485" cy="995.04" />
<circle  fill="white"	stroke="black"	r="30.0" cx="3858.485" cy="995.04" />
<circle  fill="gray"	stroke="gray"	r="50.0" cx="3753.517" cy="1217.742" />
<circle  fill="white"	stroke="black"	r="30.0" cx="3753.517" cy="1217.742" />
<circle  fill="gray"	stroke="gray"	r="50.0" cx="3383.31" cy="1451.817" />
<circle  fill="white"	stroke="black"	r="30.0" cx="3383.31" cy="1451.817" />
<circle  fill="gray"	stroke="gray"	r="50.0" cx="3827.418" cy="1345.744" />
<circle  fill="white"	stroke="black"	r="30.0" cx="3827.418" cy="1345.744" />
<circle  fill="gray"	stroke="gray"	r="50.0" cx="3439.6" cy="1549.315" />
<circle  fill="white"	stroke="black"	r="30.0" cx="3439.6" cy="1549.315" />
<circle  fill="gray"	stroke="gray"	r="50.0" cx="3871.429" cy="1235.0" />
<circle  fill="white"	stroke="black"	r="30.0" cx="3871.429" cy="1235.0" />
<circle  fill="gray"	stroke="gray"	r="50.0" cx="4072.768" cy="1366.19" />
<circle  fill="white"	stroke="black"	r="30.0" cx="4072.768" cy="1366.19" />
<circle  fill="gray"	stroke="gray"	r="50.0" cx="4149.666" cy="1566.515" />
<circle  fill="white"	stroke="black"	r="30.0" cx="4149.666" cy="1566.515" />
<circle  fill="gray"	stroke="gray"	r="50.0" cx="4205.203" cy="1773.781" />
<circle  fill="white"	stroke="black"	r="30.0" cx="4205.203" cy="1773.781" />
<circle  fill="gray"	stroke="gray"	r="50.0" cx="4238.77" cy="1985.717" />
<circle  fill="white"	stroke="black"	r="30.0" cx="4238.77" cy="1985.717" />
<circle  fill="gray"	stroke="gray"	r="50.0" cx="4032.057" cy="2052.316" />
<circle  fill="white"	stroke="black"	r="30.0" cx="4032.057" cy="2052.316" />
<circle  fill="gray"	stroke="gray"	r="50.0" cx="3595.473" cy="2087.51" />
<circle  fill="white"	stroke="black"	r="30.0" cx="3595.473" cy="2087.51" />
<circle  fill="gray"	stroke="gray"	r="50.0" cx="4038.0" cy="2200.0" />
<circle  fill="white"	stroke="black"	r="30.0" cx="4038.0" cy="2200.0" />
<circle  fill="gray"	stroke="gray"	r="50.0" cx="3600.0" cy="2200.0" />
<circle  fill="white"	stroke="black"	r="30.0" cx="3600.0" cy="2200.0" />
<circle  fill="gray"	stroke="gray"	r="50.0" cx="4032.057" cy="2347.684" />
<circle  fill="white"	stroke="black"	r="30.0" cx="4032.057" cy="2347.684" />
<circle  fill="gray"	stroke="gray"	r="50.0" cx="3595.473" cy="2312.49" />
<circle  fill="white"	stroke="black"	r="30.0" cx="3595.473" cy="2312.49" />
<circle  fill="gray"	stroke="gray"	r="50.0" cx="3881.076" cy="2943.12" />
<circle  fill="white"	stroke="black"	r="30.0" cx="3881.076" cy="2943.12" />
<circle  fill="gray"	stroke="gray"	r="50.0" cx="3480.472" cy="2766.032" />
<circle  fill="white"	stroke="black"	r="30.0" cx="3480.472" cy="2766.032" />
<circle  fill="gray"	stroke="gray"	r="50.0" cx="3836.719" cy="3036.298" />
<circle  fill="white"	stroke="black"	r="30.0" cx="3836.719" cy="3036.298" />
<circle  fill="gray"	stroke="gray"	r="50.0" cx="3684.099" cy="3284.295" />
<circle  fill="white"	stroke="black"	r="30.0" cx="3684.099" cy="3284.295" />
<circle  fill="gray"	stroke="gray"	r="50.0" cx="3403.305" cy="2915.582" />
<circle  fill="gray"	stroke="gray"	r="50.0" cx="3381.033" cy="2951.771" />
<circle  fill="white"	stroke="black"	r="30.0" cx="3403.305" cy="2915.582" />
<circle  fill="white"	stroke="black"	r="30.0" cx="3381.033" cy="2951.771" />
<circle  fill="gray"	stroke="gray"	r="50.0" cx="3242.204" cy="3713.954" />
<circle  fill="white"	stroke="black"	r="30.0" cx="3242.204" cy="3713.954" />
<circle  fill="gray"	stroke="gray"	r="50.0" cx="2990.02" cy="3859.552" />
<circle  fill="white"	stroke="black"	r="30.0" cx="2990.02" cy="3859.552" />
<circle  fill="gray"	stroke="gray"	r="50.0" cx="2918.32" cy="3401.673" />
<circle  fill="gray"	stroke="gray"	r="50.0" cx="2881.519" cy="3422.919" />
<circle  fill="white"	stroke="black"	r="30.0" cx="2918.32" cy="3401.673" />
<circle  fill="white"	stroke="black"	r="30.0" cx="2881.519" cy="3422.919" />
<circle  fill="gray"	stroke="gray"	r="50.0" cx="2396.978" cy="4027.415" />
<circle  fill="white"	stroke="black"	r="30.0" cx="2396.978" cy="4027.415" />
<circle  fill="gray"	stroke="gray"	r="50.0" cx="2105.896" cy="4035.589" />
<circle  fill="white"	stroke="black"	r="30.0" cx="2105.896" cy="4035.589" />
<circle  fill="gray"	stroke="gray"	r="50.0" cx="2260.536" cy="3598.691" />
<circle  fill="gray"	stroke="gray"	r="50.0" cx="2218.06" cy="3599.884" />
<circle  fill="white"	stroke="black"	r="30.0" cx="2260.536" cy="3598.691" />
<circle  fill="white"	stroke="black"	r="30.0" cx="2218.06" cy="3599.884" />
<circle  fill="gray"	stroke="gray"	r="50.0" cx="2003.022" cy="4027.415" />
<circle  fill="white"	stroke="black"	r="30.0" cx="2003.022" cy="4027.415" />
<circle  fill="gray"	stroke="gray"	r="50.0" cx="2049.963" cy="3591.937" />
<circle  fill="white"	stroke="black"	r="30.0" cx="2049.963" cy="3591.937" />
<circle  fill="gray"	stroke="gray"	r="50.0" cx="1525.073" cy="3909.596" />
<circle  fill="white"	stroke="black"	r="30.0" cx="1525.073" cy="3909.596" />
<circle  fill="gray"	stroke="gray"	r="50.0" cx="1263.542" cy="3781.547" />
<circle  fill="white"	stroke="black"	r="30.0" cx="1263.542" cy="3781.547" />
<circle  fill="gray"	stroke="gray"	r="50.0" cx="1603.525" cy="3466.577" />
<circle  fill="gray"	stroke="gray"	r="50.0" cx="1565.36" cy="3447.891" />
<circle  fill="white"	stroke="black"	r="30.0" cx="1603.525" cy="3466.577" />
<circle  fill="white"	stroke="black"	r="30.0" cx="1565.36" cy="3447.891" />
<circle  fill="gray"	stroke="gray"	r="50.0" cx="1176.254" cy="3726.495" />
<circle  fill="white"	stroke="black"	r="30.0" cx="1176.254" cy="3726.495" />
<circle  fill="gray"	stroke="gray"	r="50.0" cx="1420.215" cy="3362.728" />
<circle  fill="white"	stroke="black"	r="30.0" cx="1420.215" cy="3362.728" />
<circle  fill="gray"	stroke="gray"	r="50.0" cx="1056.91" cy="3639.302" />
<circle  fill="white"	stroke="black"	r="30.0" cx="1056.91" cy="3639.302" />
<circle  fill="gray"	stroke="gray"	r="50.0" cx="1329.311" cy="3296.312" />
<circle  fill="white"	stroke="black"	r="30.0" cx="1329.311" cy="3296.312" />
<circle  fill="gray"	stroke="gray"	r="50.0" cx="807.823" cy="3400.037" />
<circle  fill="white"	stroke="black"	r="30.0" cx="807.823" cy="3400.037" />
<circle  fill="gray"	stroke="gray"	r="50.0" cx="635.77" cy="3165.105" />
<circle  fill="white"	stroke="black"	r="30.0" cx="635.77" cy="3165.105" />
<circle  fill="gray"	stroke="gray"	r="50.0" cx="1083.19" cy="3044.237" />
<circle  fill="gray"	stroke="gray"	r="50.0" cx="1058.083" cy="3009.954" />
<circle  fill="white"	stroke="black"	r="30.0" cx="1083.19" cy="3044.237" />
<circle  fill="white"	stroke="black"	r="30.0" cx="1058.083" cy="3009.954" />
<circle  fill="gray"	stroke="gray"	r="50.0" cx="584.069" cy="3075.792" />
<circle  fill="white"	stroke="black"	r="30.0" cx="584.069" cy="3075.792" />
<circle  fill="gray"	stroke="gray"	r="50.0" cx="969.149" cy="2867.088" />
<circle  fill="white"	stroke="black"	r="30.0" cx="969.149" cy="2867.088" />
<circle  fill="gray"	stroke="gray"	r="50.0" cx="518.924" cy="2943.12" />
<circle  fill="white"	stroke="black"	r="30.0" cx="518.924" cy="2943.12" />
<circle  fill="gray"	stroke="gray"	r="50.0" cx="919.528" cy="2766.032" />
<circle  fill="white"	stroke="black"	r="30.0" cx="919.528" cy="2766.032" />
<circle  fill="gray"	stroke="gray"	r="50.0" cx="464.649" cy="2805.642" />
<circle  fill="white"	stroke="black"	r="30.0" cx="464.649" cy="2805.642" />
<circle  fill="gray"	stroke="gray"	r="50.0" cx="878.188" cy="2661.316" />
<circle  fill="white"	stroke="black"	r="30.0" cx="878.188" cy="2661.316" />
<circle  fill="gray"	stroke="gray"	r="50.0" cx="371.851" cy="2390.043" />
<circle  fill="white"	stroke="black"	r="30.0" cx="371.851" cy="2390.043" />
<circle  fill="gray"	stroke="gray"	r="50.0" cx="807.504" cy="2344.755" />
<circle  fill="white"	stroke="black"	r="30.0" cx="807.504" cy="2344.755" />
<circle  fill="gray"	stroke="gray"	r="50.0" cx="363.873" cy="2282.959" />
<circle  fill="white"	stroke="black"	r="30.0" cx="363.873" cy="2282.959" />
<circle  fill="gray"	stroke="gray"	r="50.0" cx="801.427" cy="2263.19" />
<circle  fill="white"	stroke="black"	r="30.0" cx="801.427" cy="2263.19" />
<circle  fill="gray"	stroke="gray"	r="50.0" cx="371.851" cy="2009.957" />
<circle  fill="white"	stroke="black"	r="30.0" cx="371.851" cy="2009.957" />
<circle  fill="gray"	stroke="gray"	r="50.0" cx="807.504" cy="2055.245" />
<circle  fill="white"	stroke="black"	r="30.0" cx="807.504" cy="2055.245" />
<circle  fill="gray"	stroke="gray"	r="50.0" cx="544.365" cy="1401.804" />
<circle  fill="white"	stroke="black"	r="30.0" cx="544.365" cy="1401.804" />
<circle  fill="gray"	stroke="gray"	r="50.0" cx="938.907" cy="1592.016" />
<circle  fill="white"	stroke="black"	r="30.0" cx="938.907" cy="1592.016" />
<circle  fill="gray"	stroke="gray"	r="50.0" cx="680.924" cy="1165.276" />
<circle  fill="white"	stroke="black"	r="30.0" cx="680.924" cy="1165.276" />
<circle  fill="gray"	stroke="gray"	r="50.0" cx="1042.924" cy="1411.854" />
<circle  fill="white"	stroke="black"	r="30.0" cx="1042.924" cy="1411.854" />
<circle  fill="gray"	stroke="gray"	r="50.0" cx="1121.344" cy="711.798" />
<circle  fill="white"	stroke="black"	r="30.0" cx="1121.344" cy="711.798" />
<circle  fill="gray"	stroke="gray"	r="50.0" cx="1378.39" cy="1066.44" />
<circle  fill="white"	stroke="black"	r="30.0" cx="1378.39" cy="1066.44" />
<circle  fill="gray"	stroke="gray"	r="50.0" cx="1353.781" cy="568.388" />
<circle  fill="white"	stroke="black"	r="30.0" cx="1353.781" cy="568.388" />
<circle  fill="gray"	stroke="gray"	r="50.0" cx="1555.437" cy="957.205" />
<circle  fill="white"	stroke="black"	r="30.0" cx="1555.437" cy="957.205" />
<circle  fill="gray"	stroke="gray"	r="50.0" cx="1450.507" cy="521.755" />
<circle  fill="white"	stroke="black"	r="30.0" cx="1450.507" cy="521.755" />
<circle  fill="gray"	stroke="gray"	r="50.0" cx="1629.113" cy="921.685" />
<circle  fill="white"	stroke="black"	r="30.0" cx="1629.113" cy="921.685" />
<circle  fill="gray"	stroke="gray"	r="50.0" cx="1936.606" cy="380.971" />
<circle  fill="white"	stroke="black"	r="30.0" cx="1936.606" cy="380.971" />
<circle  fill="gray"	stroke="gray"	r="50.0" cx="1999.373" cy="814.45" />
<circle  fill="white"	stroke="black"	r="30.0" cx="1999.373" cy="814.45" />
<circle  fill="gray"	stroke="gray"	r="50.0" cx="2209.066" cy="362.022" />
<circle  fill="white"	stroke="black"	r="30.0" cx="2209.066" cy="362.022" />
<circle  fill="gray"	stroke="gray"	r="50.0" cx="2206.905" cy="800.017" />
<circle  fill="white"	stroke="black"	r="30.0" cx="2206.905" cy="800.017" />
<circle  fill="gray"	stroke="gray"	r="50.0" cx="2316.383" cy="365.688" />
<circle  fill="white"	stroke="black"	r="30.0" cx="2316.383" cy="365.688" />
<circle  fill="gray"	stroke="gray"	r="50.0" cx="2288.649" cy="802.809" />
<circle  fill="white"	stroke="black"	r="30.0" cx="2288.649" cy="802.809" />
<circle  fill="gray"	stroke="gray"	r="50.0" cx="2463.394" cy="380.971" />
<circle  fill="white"	stroke="black"	r="30.0" cx="2463.394" cy="380.971" />
<circle  fill="gray"	stroke="gray"	r="50.0" cx="2400.627" cy="814.45" />
<circle  fill="white"	stroke="black"	r="30.0" cx="2400.627" cy="814.45" />
<circle  fill="gray"	stroke="gray"	r="50.0" cx="3119.0" cy="608.245" />
<circle  fill="white"	stroke="black"	r="30.0" cx="3119.0" cy="608.245" />
<circle  fill="gray"	stroke="gray"	r="50.0" cx="2900.0" cy="987.564" />
<circle  fill="white"	stroke="black"	r="30.0" cx="2900.0" cy="987.564" />
<circle  fill="gray"	stroke="gray"	r="50.0" cx="3753.517" cy="1217.742" />
<circle  fill="white"	stroke="black"	r="30.0" cx="3753.517" cy="1217.742" />
<circle  fill="gray"	stroke="gray"	r="50.0" cx="3383.31" cy="1451.817" />
<circle  fill="white"	stroke="black"	r="30.0" cx="3383.31" cy="1451.817" />
<circle  fill="gray"	stroke="gray"	r="50.0" cx="3827.418" cy="1345.744" />
<circle  fill="white"	stroke="black"	r="30.0" cx="3827.418" cy="1345.744" />
<circle  fill="gray"	stroke="gray"	r="50.0" cx="3439.6" cy="1549.315" />
<circle  fill="white"	stroke="black"	r="30.0" cx="3439.6" cy="1549.315" />
<rect    fill="gray"	stroke="gray"	x="1910.0" y="1910.0" width="580.0" height="580.0" />
<circle  fill="white"	stroke="black"	r="40.0" cx="2200.0" cy="2200.0" />
</g>
</svg>
