<?xml version="1.0" encoding="utf-8"?>
<!DOCTYPE svg PUBLIC "-//W3C//DTD SVG 1.1//EN" "http://www.w3.org/Graphics/SVG/1.1/DTD/svg11.dtd">
<svg version="1.1" id="Layer_1" xmlns="http://www.w3.org/2000/svg" xmlns:xlink="http://www.w3.org/1999/xlink" x="0px" y="0px"
	 width="440.0mm" height="440.0mm"
	 viewBox="0 0 4400.0 4400.0"
	 xml:space="preserve">
<g>
<circle  fill="black"	stroke="black"	r="2200.0" cx="2200.0" cy="2200.0" />
<circle  fill="gray"	stroke="gray"	r="50.0" cx="4032.057" cy="2052.316" />
<circle  fill="gray"	stroke="gray"	r="50.0" cx="3595.473" cy="2087.51" />
<line    fill="none"	stroke="rgb(255,200,0)"	stroke-width="40.0" stroke-linecap="round" x1="4032.057" y1="2052.316" x2="3595.473" y2="2087.51" />
<circle  fill="gray"	stroke="gray"	r="50.0" cx="4038.0" cy="2200.0" />
<circle  fill="gray"	stroke="gray"	r="50.0" cx="3600.0" cy="2200.0" />
<line    fill="none"	stroke="rgb(255,200,0)"	stroke-width="40.0" stroke-linecap="round" x1="4038.0" y1="2200.0" x2="3600.0" y2="2200.0" />
<circle  fill="gray"	stroke="gray"	r="50.0" cx="4032.057" cy="2347.684" />
<circle  fill="gray"	stroke="gray"	r="50.0" cx="3595.473" cy="2312.49" />
<line    fill="none"	stroke="rgb(255,200,0)"	stroke-width="40.0" stroke-linecap="round" x1="4032.057" y1="2347.684" x2="3595.473" y2="2312.49" />
<circle  fill="gray"	stroke="gray"	r="50.0" cx="4150.0" cy="2200.0" />
<line    fill="none"	stroke="rgb(255,200,0)"	stroke-width="40.0" stroke-linecap="round" x1="4150.0" y1="2200.0" x2="4428.642" y2="2277.826" />
<circle  fill="gray"	stroke="gray"	r="50.0" cx="4238.77" cy="2414.283" />
<line    fill="none"	stroke="rgb(255,200,0)"	stroke-width="40.0" stroke-linecap="round" x1="4238.77" y1="2414.283" x2="4408.298" y2="2510.356" />
<circle  fill="gray"	stroke="gray"	r="50.0" cx="4205.203" cy="2626.219" />
<line    fill="none"	stroke="rgb(255,200,0)"	stroke-width="40.0" stroke-linecap="round" x1="4205.203" y1="2626.219" x2="4363.759" y2="2739.486" />
<circle  fill="gray"	stroke="gray"	r="50.0" cx="4149.666" cy="2833.485" />
<line    fill="none"	stroke="rgb(255,200,0)"	stroke-width="40.0" stroke-linecap="round" x1="4149.666" y1="2833.485" x2="4295.515" y2="2962.705" />
<circle  fill="gray"	stroke="gray"	r="50.0" cx="4072.768" cy="3033.81" />
<line    fill="none"	stroke="rgb(255,200,0)"	stroke-width="40.0" stroke-linecap="round" x1="4072.768" y1="3033.81" x2="4204.311" y2="3177.568" />
<circle  fill="gray"	stroke="gray"	r="50.0" cx="3881.076" cy="2943.12" />
<circle  fill="gray"	stroke="gray"	r="50.0" cx="3480.472" cy="2766.032" />
<line    fill="none"	stroke="rgb(255,200,0)"	stroke-width="40.0" stroke-linecap="round" x1="3881.076" y1="2943.12" x2="3480.472" y2="2766.032" />
<circle  fill="gray"	stroke="gray"	r="50.0" cx="3836.719" cy="3036.298" />
<circle  fill="gray"	stroke="gray"	r="50.0" cx="3684.099" cy="3284.295" />
<circle  fill="gray"	stroke="gray"	r="50.0" cx="3403.305" cy="2915.582" />
<circle  fill="gray"	stroke="gray"	r="50.0" cx="3381.033" cy="2951.771" />
<line    fill="none"	stroke="rgb(255,200,0)"	stroke-width="40.0" stroke-linecap="round" x1="3836.719" y1="3036.298" x2="3403.305" y2="2915.582" />
<line    fill="none"	stroke="rgb(255,200,0)"	stroke-width="40.0" stroke-linecap="round" x1="3684.099" y1="3284.295" x2="3381.033" y2="2951.771" />
<circle  fill="gray"	stroke="gray"	r="50.0" cx="3888.75" cy="3175.0" />
<line    fill="none"	stroke="rgb(255,200,0)"	stroke-width="40.0" stroke-linecap="round" x1="3888.75" y1="3175.0" x2="4091.147" y2="3381.72" />
<circle  fill="gray"	stroke="gray"	r="50.0" cx="3858.485" cy="3404.96" />
<line    fill="none"	stroke="rgb(255,200,0)"	stroke-width="40.0" stroke-linecap="round" x1="3858.485" y1="3404.96" x2="3957.264" y2="3572.925" />
<circle  fill="gray"	stroke="gray"	r="50.0" cx="3723.447" cy="3571.718" />
<line    fill="none"	stroke="rgb(255,200,0)"	stroke-width="40.0" stroke-linecap="round" x1="3723.447" y1="3571.718" x2="3804.128" y2="3749.088" />
<circle  fill="gray"	stroke="gray"	r="50.0" cx="3571.718" cy="3723.447" />
<line    fill="none"	stroke="rgb(255,200,0)"	stroke-width="40.0" stroke-linecap="round" x1="3571.718" y1="3723.447" x2="3633.416" y2="3908.279" />
<circle  fill="gray"	stroke="gray"	r="50.0" cx="3404.96" cy="3858.485" />
<line    fill="none"	stroke="rgb(255,200,0)"	stroke-width="40.0" stroke-linecap="round" x1="3404.96" y1="3858.485" x2="3447.0" y2="4048.754" />
<circle  fill="gray"	stroke="gray"	r="50.0" cx="3242.204" cy="3713.954" />
<circle  fill="gray"	stroke="gray"	r="50.0" cx="2990.02" cy="3859.552" />
<circle  fill="gray"	stroke="gray"	r="50.0" cx="2918.32" cy="3401.673" />
<circle  fill="gray"	stroke="gray"	r="50.0" cx="2881.519" cy="3422.919" />
<line    fill="none"	stroke="rgb(255,200,0)"	stroke-width="40.0" stroke-linecap="round" x1="3242.204" y1="3713.954" x2="2918.32" y2="3401.673" />
<line    fill="none"	stroke="rgb(255,200,0)"	stroke-width="40.0" stroke-linecap="round" x1="2990.02" y1="3859.552" x2="2881.519" y2="3422.919" />
<circle  fill="gray"	stroke="gray"	r="50.0" cx="3175.0" cy="3888.75" />
<line    fill="none"	stroke="rgb(255,200,0)"	stroke-width="40.0" stroke-linecap="round" x1="3175.0" y1="3888.75" x2="3246.922" y2="4168.973" />
<circle  fill="gray"	stroke="gray"	r="50.0" cx="3033.81" cy="4072.768" />
<line    fill="none"	stroke="rgb(255,200,0)"	stroke-width="40.0" stroke-linecap="round" x1="3033.81" y1="4072.768" x2="3035.373" y2="4267.62" />
<circle  fill="gray"	stroke="gray"	r="50.0" cx="2833.485" cy="4149.666" />
<line    fill="none"	stroke="rgb(255,200,0)"	stroke-width="40.0" stroke-linecap="round" x1="2833.485" y1="4149.666" x2="2814.671" y2="4343.614" />
<circle  fill="gray"	stroke="gray"	r="50.0" cx="2626.219" cy="4205.203" />
<line    fill="none"	stroke="rgb(255,200,0)"	stroke-width="40.0" stroke-linecap="round" x1="2626.219" y1="4205.203" x2="2587.235" y2="4396.121" />
<circle  fill="gray"	stroke="gray"	r="50.0" cx="2414.283" cy="4238.77" />
<line    fill="none"	stroke="rgb(255,200,0)"	stroke-width="40.0" stroke-linecap="round" x1="2414.283" y1="4238.77" x2="2355.557" y2="4424.568" />
<circle  fill="gray"	stroke="gray"	r="50.0" cx="2396.978" cy="4027.415" />
<circle  fill="gray"	stroke="gray"	r="50.0" cx="2105.896" cy="4035.589" />
<circle  fill="gray"	stroke="gray"	r="50.0" cx="2260.536" cy="3598.691" />
<circle  fill="gray"	stroke="gray"	r="50.0" cx="2218.06" cy="3599.884" />
<line    fill="none"	stroke="rgb(255,200,0)"	stroke-width="40.0" stroke-linecap="round" x1="2396.978" y1="4027.415" x2="2260.536" y2="3598.691" />
<line    fill="none"	stroke="rgb(255,200,0)"	stroke-width="40.0" stroke-linecap="round" x1="2105.896" y1="4035.589" x2="2218.06" y2="3599.884" />
<circle  fill="gray"	stroke="gray"	r="50.0" cx="2003.022" cy="4027.415" />
<circle  fill="gray"	stroke="gray"	r="50.0" cx="2049.963" cy="3591.937" />
<line    fill="none"	stroke="rgb(255,200,0)"	stroke-width="40.0" stroke-linecap="round" x1="2003.022" y1="4027.415" x2="2049.963" y2="3591.937" />
<circle  fill="gray"	stroke="gray"	r="50.0" cx="2200.0" cy="4150.0" />
<line    fill="none"	stroke="rgb(255,200,0)"	stroke-width="40.0" stroke-linecap="round" x1="2200.0" y1="4150.0" x2="2122.174" y2="4428.642" />
<circle  fill="gray"	stroke="gray"	r="50.0" cx="1985.717" cy="4238.77" />
<line    fill="none"	stroke="rgb(255,200,0)"	stroke-width="40.0" stroke-linecap="round" x1="1985.717" y1="4238.77" x2="1889.644" y2="4408.298" />
<circle  fill="gray"	stroke="gray"	r="50.0" cx="1773.781" cy="4205.203" />
<line    fill="none"	stroke="rgb(255,200,0)"	stroke-width="40.0" stroke-linecap="round" x1="1773.781" y1="4205.203" x2="1660.514" y2="4363.759" />
<circle  fill="gray"	stroke="gray"	r="50.0" cx="1566.515" cy="4149.666" />
<line    fill="none"	stroke="rgb(255,200,0)"	stroke-width="40.0" stroke-linecap="round" x1="1566.515" y1="4149.666" x2="1437.295" y2="4295.515" />
<circle  fill="gray"	stroke="gray"	r="50.0" cx="1366.19" cy="4072.768" />
<line    fill="none"	stroke="rgb(255,200,0)"	stroke-width="40.0" stroke-linecap="round" x1="1366.19" y1="4072.768" x2="1222.432" y2="4204.311" />
<circle  fill="gray"	stroke="gray"	r="50.0" cx="1525.073" cy="3909.596" />
<circle  fill="gray"	stroke="gray"	r="50.0" cx="1263.542" cy="3781.547" />
<circle  fill="gray"	stroke="gray"	r="50.0" cx="1603.525" cy="3466.577" />
<circle  fill="gray"	stroke="gray"	r="50.0" cx="1565.36" cy="3447.891" />
<line    fill="none"	stroke="rgb(255,200,0)"	stroke-width="40.0" stroke-linecap="round" x1="1525.073" y1="3909.596" x2="1603.525" y2="3466.577" />
<line    fill="none"	stroke="rgb(255,200,0)"	stroke-width="40.0" stroke-linecap="round" x1="1263.542" y1="3781.547" x2="1565.36" y2="3447.891" />
<circle  fill="gray"	stroke="gray"	r="50.0" cx="1176.254" cy="3726.495" />
<circle  fill="gray"	stroke="gray"	r="50.0" cx="1420.215" cy="3362.728" />
<line    fill="none"	stroke="rgb(255,200,0)"	stroke-width="40.0" stroke-linecap="round" x1="1176.254" y1="3726.495" x2="1420.215" y2="3362.728" />
<circle  fill="gray"	stroke="gray"	r="50.0" cx="1056.91" cy="3639.302" />
<circle  fill="gray"	stroke="gray"	r="50.0" cx="1329.311" cy="3296.312" />
<line    fill="none"	stroke="rgb(255,200,0)"	stroke-width="40.0" stroke-linecap="round" x1="1056.91" y1="3639.302" x2="1329.311" y2="3296.312" />
<circle  fill="gray"	stroke="gray"	r="50.0" cx="1225.0" cy="3888.75" />
<line    fill="none"	stroke="rgb(255,200,0)"	stroke-width="40.0" stroke-linecap="round" x1="1225.0" y1="3888.75" x2="1018.28" y2="4091.147" />
<circle  fill="gray"	stroke="gray"	r="50.0" cx="995.04" cy="3858.485" />
<line    fill="none"	stroke="rgb(255,200,0)"	stroke-width="40.0" stroke-linecap="round" x1="995.04" y1="3858.485" x2="827.075" y2="3957.264" />
<circle  fill="gray"	stroke="gray"	r="50.0" cx="828.282" cy="3723.447" />
<line    fill="none"	stroke="rgb(255,200,0)"	stroke-width="40.0" stroke-linecap="round" x1="828.282" y1="3723.447" x2="650.912" y2="3804.128" />
<circle  fill="gray"	stroke="gray"	r="50.0" cx="676.553" cy="3571.718" />
<line    fill="none"	stroke="rgb(255,200,0)"	stroke-width="40.0" stroke-linecap="round" x1="676.553" y1="3571.718" x2="491.721" y2="3633.416" />
<circle  fill="gray"	stroke="gray"	r="50.0" cx="541.515" cy="3404.96" />
<line    fill="none"	stroke="rgb(255,200,0)"	stroke-width="40.0" stroke-linecap="round" x1="541.515" y1="3404.96" x2="351.246" y2="3447.0" />
<circle  fill="gray"	stroke="gray"	r="50.0" cx="807.823" cy="3400.037" />
<circle  fill="gray"	stroke="gray"	r="50.0" cx="635.77" cy="3165.105" />
<circle  fill="gray"	stroke="gray"	r="50.0" cx="1083.19" cy="3044.237" />
<circle  fill="gray"	stroke="gray"	r="50.0" cx="1058.083" cy="3009.954" />
<line    fill="none"	stroke="rgb(255,200,0)"	stroke-width="40.0" stroke-linecap="round" x1="807.823" y1="3400.037" x2="1083.19" y2="3044.237" />
<line    fill="none"	stroke="rgb(255,200,0)"	stroke-width="40.0" stroke-linecap="round" x1="635.77" y1="3165.105" x2="1058.083" y2="3009.954" />
<circle  fill="gray"	stroke="gray"	r="50.0" cx="584.069" cy="3075.792" />
<circle  fill="gray"	stroke="gray"	r="50.0" cx="969.149" cy="2867.088" />
<line    fill="none"	stroke="rgb(255,200,0)"	stroke-width="40.0" stroke-linecap="round" x1="584.069" y1="3075.792" x2="969.149" y2="2867.088" />
<circle  fill="gray"	stroke="gray"	r="50.0" cx="518.924" cy="2943.12" />
<circle  fill="gray"	stroke="gray"	r="50.0" cx="919.528" cy="2766.032" />
<line    fill="none"	stroke="rgb(255,200,0)"	stroke-width="40.0" stroke-linecap="round" x1="518.924" y1="2943.12" x2="919.528" y2="2766.032" />
<circle  fill="gray"	stroke="gray"	r="50.0" cx="464.649" cy="2805.642" />
<circle  fill="gray"	stroke="gray"	r="50.0" cx="878.188" cy="2661.316" />
<line    fill="none"	stroke="rgb(255,200,0)"	stroke-width="40.0" stroke-linecap="round" x1="464.649" y1="2805.642" x2="878.188" y2="2661.316" />
<circle  fill="gray"	stroke="gray"	r="50.0" cx="511.25" cy="3175.0" />
<line    fill="none"	stroke="rgb(255,200,0)"	stroke-width="40.0" stroke-linecap="round" x1="511.25" y1="3175.0" x2="231.027" y2="3246.922" />
<circle  fill="gray"	stroke="gray"	r="50.0" cx="327.232" cy="3033.81" />
<line    fill="none"	stroke="rgb(255,200,0)"	stroke-width="40.0" stroke-linecap="round" x1="327.232" y1="3033.81" x2="132.38" y2="3035.373" />
<circle  fill="gray"	stroke="gray"	r="50.0" cx="250.334" cy="2833.485" />
<line    fill="none"	stroke="rgb(255,200,0)"	stroke-width="40.0" stroke-linecap="round" x1="250.334" y1="2833.485" x2="56.386" y2="2814.671" />
<circle  fill="gray"	stroke="gray"	r="50.0" cx="194.797" cy="2626.219" />
<line    fill="none"	stroke="rgb(255,200,0)"	stroke-width="40.0" stroke-linecap="round" x1="194.797" y1="2626.219" x2="3.879" y2="2587.235" />
<circle  fill="gray"	stroke="gray"	r="50.0" cx="161.23" cy="2414.283" />
<line    fill="none"	stroke="rgb(255,200,0)"	stroke-width="40.0" stroke-linecap="round" x1="161.23" y1="2414.283" x2="-24.568" y2="2355.557" />
<circle  fill="gray"	stroke="gray"	r="50.0" cx="371.851" cy="2390.043" />
<circle  fill="gray"	stroke="gray"	r="50.0" cx="807.504" cy="2344.755" />
<line    fill="none"	stroke="rgb(255,200,0)"	stroke-width="40.0" stroke-linecap="round" x1="371.851" y1="2390.043" x2="807.504" y2="2344.755" />
<circle  fill="gray"	stroke="gray"	r="50.0" cx="363.873" cy="2282.959" />
<circle  fill="gray"	stroke="gray"	r="50.0" cx="801.427" cy="2263.19" />
<circle  fill="gray"	stroke="gray"	r="50.0" cx="371.851" cy="2009.957" />
<circle  fill="gray"	stroke="gray"	r="50.0" cx="807.504" cy="2055.245" />
<line    fill="none"	stroke="rgb(255,200,0)"	stroke-width="40.0" stroke-linecap="round" x1="371.851" y1="2009.957" x2="801.427" y2="2263.19" />
<line    fill="none"	stroke="rgb(255,200,0)"	stroke-width="40.0" stroke-linecap="round" x1="363.873" y1="2282.959" x2="807.504" y2="2055.245" />
<circle  fill="gray"	stroke="gray"	r="50.0" cx="250.0" cy="2200.0" />
<line    fill="none"	stroke="rgb(255,200,0)"	stroke-width="40.0" stroke-linecap="round" x1="250.0" y1="2200.0" x2="-28.642" y2="2122.174" />
<circle  fill="gray"	stroke="gray"	r="50.0" cx="161.23" cy="1985.717" />
<line    fill="none"	stroke="rgb(255,200,0)"	stroke-width="40.0" stroke-linecap="round" x1="161.23" y1="1985.717" x2="-8.298" y2="1889.644" />
<circle  fill="gray"	stroke="gray"	r="50.0" cx="194.797" cy="1773.781" />
<line    fill="none"	stroke="rgb(255,200,0)"	stroke-width="40.0" stroke-linecap="round" x1="194.797" y1="1773.781" x2="36.241" y2="1660.514" />
<circle  fill="gray"	stroke="gray"	r="50.0" cx="250.334" cy="1566.515" />
<line    fill="none"	stroke="rgb(255,200,0)"	stroke-width="40.0" stroke-linecap="round" x1="250.334" y1="1566.515" x2="104.485" y2="1437.295" />
<circle  fill="gray"	stroke="gray"	r="50.0" cx="327.232" cy="1366.19" />
<line    fill="none"	stroke="rgb(255,200,0)"	stroke-width="40.0" stroke-linecap="round" x1="327.232" y1="1366.19" x2="195.689" y2="1222.432" />
<circle  fill="gray"	stroke="gray"	r="50.0" cx="544.365" cy="1401.804" />
<circle  fill="gray"	stroke="gray"	r="50.0" cx="938.907" cy="1592.016" />
<circle  fill="gray"	stroke="gray"	r="50.0" cx="680.924" cy="1165.276" />
<circle  fill="gray"	stroke="gray"	r="50.0" cx="1042.924" cy="1411.854" />
<line    fill="none"	stroke="rgb(255,200,0)"	stroke-width="40.0" stroke-linecap="round" x1="680.924" y1="1165.276" x2="938.907" y2="1592.016" />
<line    fill="none"	stroke="rgb(255,200,0)"	stroke-width="40.0" stroke-linecap="round" x1="544.365" y1="1401.804" x2="1042.924" y2="1411.854" />
<circle  fill="gray"	stroke="gray"	r="50.0" cx="511.25" cy="1225.0" />
<line    fill="none"	stroke="rgb(255,200,0)"	stroke-width="40.0" stroke-linecap="round" x1="511.25" y1="1225.0" x2="308.853" y2="1018.28" />
<circle  fill="gray"	stroke="gray"	r="50.0" cx="541.515" cy="995.04" />
<line    fill="none"	stroke="rgb(255,200,0)"	stroke-width="40.0" stroke-linecap="round" x1="541.515" y1="995.04" x2="442.736" y2="827.075" />
<circle  fill="gray"	stroke="gray"	r="50.0" cx="676.553" cy="828.282" />
<line    fill="none"	stroke="rgb(255,200,0)"	stroke-width="40.0" stroke-linecap="round" x1="676.553" y1="828.282" x2="595.872" y2="650.912" />
<circle  fill="gray"	stroke="gray"	r="50.0" cx="828.282" cy="676.553" />
<line    fill="none"	stroke="rgb(255,200,0)"	stroke-width="40.0" stroke-linecap="round" x1="828.282" y1="676.553" x2="766.584" y2="491.721" />
<circle  fill="gray"	stroke="gray"	r="50.0" cx="995.04" cy="541.515" />
<line    fill="none"	stroke="rgb(255,200,0)"	stroke-width="40.0" stroke-linecap="round" x1="995.04" y1="541.515" x2="953.0" y2="351.246" />
<circle  fill="gray"	stroke="gray"	r="50.0" cx="1121.344" cy="711.798" />
<circle  fill="gray"	stroke="gray"	r="50.0" cx="1378.39" cy="1066.44" />
<circle  fill="gray"	stroke="gray"	r="50.0" cx="1353.781" cy="568.388" />
<circle  fill="gray"	stroke="gray"	r="50.0" cx="1555.437" cy="957.205" />
<line    fill="none"	stroke="rgb(255,200,0)"	stroke-width="40.0" stroke-linecap="round" x1="1353.781" y1="568.388" x2="1378.39" y2="1066.44" />
<line    fill="none"	stroke="rgb(255,200,0)"	stroke-width="40.0" stroke-linecap="round" x1="1121.344" y1="711.798" x2="1555.437" y2="957.205" />
<circle  fill="gray"	stroke="gray"	r="50.0" cx="1450.507" cy="521.755" />
<circle  fill="gray"	stroke="gray"	r="50.0" cx="1629.113" cy="921.685" />
<line    fill="none"	stroke="rgb(255,200,0)"	stroke-width="40.0" stroke-linecap="round" x1="1450.507" y1="521.755" x2="1629.113" y2="921.685" />
<circle  fill="gray"	stroke="gray"	r="50.0" cx="1225.0" cy="511.25" />
<line    fill="none"	stroke="rgb(255,200,0)"	stroke-width="40.0" stroke-linecap="round" x1="1225.0" y1="511.25" x2="1153.078" y2="231.027" />
<circle  fill="gray"	stroke="gray"	r="50.0" cx="1366.19" cy="327.232" />
<line    fill="none"	stroke="rgb(255,200,0)"	stroke-width="40.0" stroke-linecap="round" x1="1366.19" y1="327.232" x2="1364.627" y2="132.38" />
<circle  fill="gray"	stroke="gray"	r="50.0" cx="1566.515" cy="250.334" />
<line    fill="none"	stroke="rgb(255,200,0)"	stroke-width="40.0" stroke-linecap="round" x1="1566.515" y1="250.334" x2="1585.329" y2="56.386" />
<circle  fill="gray"	stroke="gray"	r="50.0" cx="1773.781" cy="194.797" />
<line    fill="none"	stroke="rgb(255,200,0)"	stroke-width="40.0" stroke-linecap="round" x1="1773.781" y1="194.797" x2="1812.765" y2="3.879" />
<circle  fill="gray"	stroke="gray"	r="50.0" cx="1985.717" cy="161.23" />
<line    fill="none"	stroke="rgb(255,200,0)"	stroke-width="40.0" stroke-linecap="round" x1="1985.717" y1="161.23" x2="2044.443" y2="-24.568" />
<circle  fill="gray"	stroke="gray"	r="50.0" cx="1936.606" cy="380.971" />
<circle  fill="gray"	stroke="gray"	r="50.0" cx="1999.373" cy="814.45" />
<circle  fill="gray"	stroke="gray"	r="50.0" cx="2209.066" cy="362.022" />
<circle  fill="gray"	stroke="gray"	r="50.0" cx="2206.905" cy="800.017" />
<line    fill="none"	stroke="rgb(255,200,0)"	stroke-width="40.0" stroke-linecap="round" x1="2209.066" y1="362.022" x2="1999.373" y2="814.45" />
<line    fill="none"	stroke="rgb(255,200,0)"	stroke-width="40.0" stroke-linecap="round" x1="1936.606" y1="380.971" x2="2206.905" y2="800.017" />
<circle  fill="gray"	stroke="gray"	r="50.0" cx="2316.383" cy="365.688" />
<circle  fill="gray"	stroke="gray"	r="50.0" cx="2288.649" cy="802.809" />
<line    fill="none"	stroke="rgb(255,200,0)"	stroke-width="40.0" stroke-linecap="round" x1="2316.383" y1="365.688" x2="2288.649" y2="802.809" />
<circle  fill="gray"	stroke="gray"	r="50.0" cx="2463.394" cy="380.971" />
<circle  fill="gray"	stroke="gray"	r="50.0" cx="2400.627" cy="814.45" />
<line    fill="none"	stroke="rgb(255,200,0)"	stroke-width="40.0" stroke-linecap="round" x1="2463.394" y1="380.971" x2="2400.627" y2="814.45" />
<circle  fill="gray"	stroke="gray"	r="50.0" cx="2200.0" cy="250.0" />
<line    fill="none"	stroke="rgb(255,200,0)"	stroke-width="40.0" stroke-linecap="round" x1="2200.0" y1="250.0" x2="2277.826" y2="-28.642" />
<circle  fill="gray"	stroke="gray"	r="50.0" cx="2414.283" cy="161.23" />
<line    fill="none"	stroke="rgb(255,200,0)"	stroke-width="40.0" stroke-linecap="round" x1="2414.283" y1="161.23" x2="2510.356" y2="-8.298" />
<circle  fill="gray"	stroke="gray"	r="50.0" cx="2626.219" cy="194.797" />
<line    fill="none"	stroke="rgb(255,200,0)"	stroke-width="40.0" stroke-linecap="round" x1="2626.219" y1="194.797" x2="2739.486" y2="36.241" />
<circle  fill="gray"	stroke="gray"	r="50.0" cx="2833.485" cy="250.334" />
<line    fill="none"	stroke="rgb(255,200,0)"	stroke-width="40.0" stroke-linecap="round" x1="2833.485" y1="250.334" x2="2962.705" y2="104.485" />
<circle  fill="gray"	stroke="gray"	r="50.0" cx="3033.81" cy="327.232" />
<line    fill="none"	stroke="rgb(255,200,0)"	stroke-width="40.0" stroke-linecap="round" x1="3033.81" y1="327.232" x2="3177.568" y2="195.689" />
<circle  fill="gray"	stroke="gray"	r="50.0" cx="3119.0" cy="608.245" />
<circle  fill="gray"	stroke="gray"	r="50.0" cx="2900.0" cy="987.564" />
<line    fill="none"	stroke="rgb(255,200,0)"	stroke-width="40.0" stroke-linecap="round" x1="3119.0" y1="608.245" x2="2900.0" y2="987.564" />
<circle  fill="gray"	stroke="gray"	r="50.0" cx="3175.0" cy="511.25" />
<line    fill="none"	stroke="rgb(255,200,0)"	stroke-width="40.0" stroke-linecap="round" x1="3175.0" y1="511.25" x2="3381.72" y2="308.853" />
<circle  fill="gray"	stroke="gray"	r="50.0" cx="3404.96" cy="541.515" />
<line    fill="none"	stroke="rgb(255,200,0)"	stroke-width="40.0" stroke-linecap="round" x1="3404.96" y1="541.515" x2="3572.925" y2="442.736" />
<circle  fill="gray"	stroke="gray"	r="50.0" cx="3571.718" cy="676.553" />
<line    fill="none"	stroke="rgb(255,200,0)"	stroke-width="40.0" stroke-linecap="round" x1="3571.718" y1="676.553" x2="3749.088" y2="595.872" />
<circle  fill="gray"	stroke="gray"	r="50.0" cx="3723.447" cy="828.282" />
<line    fill="none"	stroke="rgb(255,200,0)"	stroke-width="40.0" stroke-linecap="round" x1="3723.447" y1="828.282" x2="3908.279" y2="766.584" />
<circle  fill="gray"	stroke="gray"	r="50.0" cx="3858.485" cy="995.04" />
<line    fill="none"	stroke="rgb(255,200,0)"	stroke-width="40.0" stroke-linecap="round" x1="3858.485" y1="995.04" x2="4048.754" y2="953.0" />
<circle  fill="gray"	stroke="gray"	r="50.0" cx="3753.517" cy="1217.742" />
<circle  fill="gray"	stroke="gray"	r="50.0" cx="3383.31" cy="1451.817" />
<line    fill="none"	stroke="rgb(255,200,0)"	stroke-width="40.0" stroke-linecap="round" x1="3753.517" y1="1217.742" x2="3383.31" y2="1451.817" />
<circle  fill="gray"	stroke="gray"	r="50.0" cx="3827.418" cy="1345.744" />
<circle  fill="gray"	stroke="gray"	r="50.0" cx="3439.6" cy="1549.315" />
<line    fill="none"	stroke="rgb(255,200,0)"	stroke-width="40.0" stroke-linecap="round" x1="3827.418" y1="1345.744" x2="3439.6" y2="1549.315" />
<circle  fill="gray"	stroke="gray"	r="50.0" cx="3888.75" cy="1225.0" />
<line    fill="none"	stroke="rgb(255,200,0)"	stroke-width="40.0" stroke-linecap="round" x1="3888.75" y1="1225.0" x2="4168.973" y2="1153.078" />
<circle  fill="gray"	stroke="gray"	r="50.0" cx="4072.768" cy="1366.19" />
<line    fill="none"	stroke="rgb(255,200,0)"	stroke-width="40.0" stroke-linecap="round" x1="4072.768" y1="1366.19" x2="4267.62" y2="1364.627" />
<circle  fill="gray"	stroke="gray"	r="50.0" cx="4149.666" cy="1566.515" />
<line    fill="none"	stroke="rgb(255,200,0)"	stroke-width="40.0" stroke-linecap="round" x1="4149.666" y1="1566.515" x2="4343.614" y2="1585.329" />
<circle  fill="gray"	stroke="gray"	r="50.0" cx="4205.203" cy="1773.781" />
<line    fill="none"	stroke="rgb(255,200,0)"	stroke-width="40.0" stroke-linecap="round" x1="4205.203" y1="1773.781" x2="4396.121" y2="1812.765" />
<circle  fill="gray"	stroke="gray"	r="50.0" cx="4238.77" cy="1985.717" />
<line    fill="none"	stroke="rgb(255,200,0)"	stroke-width="40.0" stroke-linecap="round" x1="4238.77" y1="1985.717" x2="4424.568" y2="2044.443" />
<circle  fill="gray"	stroke="gray"	r="50.0" cx="4032.057" cy="2052.316" />
<circle  fill="gray"	stroke="gray"	r="50.0" cx="3595.473" cy="2087.51" />
<line    fill="none"	stroke="rgb(255,200,0)"	stroke-width="40.0" stroke-linecap="round" x1="4032.057" y1="2052.316" x2="3595.473" y2="2087.51" />
<circle  fill="gray"	stroke="gray"	r="50.0" cx="4038.0" cy="2200.0" />
<circle  fill="gray"	stroke="gray"	r="50.0" cx="3600.0" cy="2200.0" />
<line    fill="none"	stroke="rgb(255,200,0)"	stroke-width="40.0" stroke-linecap="round" x1="4038.0" y1="2200.0" x2="3600.0" y2="2200.0" />
<circle  fill="gray"	stroke="gray"	r="50.0" cx="4032.057" cy="2347.684" />
<circle  fill="gray"	stroke="gray"	r="50.0" cx="3595.473" cy="2312.49" />
<line    fill="none"	stroke="rgb(255,200,0)"	stroke-width="40.0" stroke-linecap="round" x1="4032.057" y1="2347.684" x2="3595.473" y2="2312.49" />
<circle  fill="gray"	stroke="gray"	r="50.0" cx="3881.076" cy="2943.12" />
<circle  fill="gray"	stroke="gray"	r="50.0" cx="3480.472" cy="2766.032" />
<line    fill="none"	stroke="rgb(255,200,0)"	stroke-width="40.0" stroke-linecap="round" x1="3881.076" y1="2943.12" x2="3480.472" y2="2766.032" />
<circle  fill="gray"	stroke="gray"	r="50.0" cx="3836.719" cy="3036.298" />
<circle  fill="gray"	stroke="gray"	r="50.0" cx="3684.099" cy="3284.295" />
<circle  fill="gray"	stroke="gray"	r="50.0" cx="3403.305" cy="2915.582" />
<circle  fill="gray"	stroke="gray"	r="50.0" cx="3381.033" cy="2951.771" />
<line    fill="none"	stroke="rgb(255,200,0)"	stroke-width="40.0" stroke-linecap="round" x1="3836.719" y1="3036.298" x2="3403.305" y2="2915.582" />
<line    fill="none"	stroke="rgb(255,200,0)"	stroke-width="40.0" stroke-linecap="round" x1="3684.099" y1="3284.295" x2="3381.033" y2="2951.771" />
<circle  fill="gray"	stroke="gray"	r="50.0" cx="3242.204" cy="3713.954" />
<circle  fill="gray"	stroke="gray"	r="50.0" cx="2990.02" cy="3859.552" />
<circle  fill="gray"	stroke="gray"	r="50.0" cx="2918.32" cy="3401.673" />
<circle  fill="gray"	stroke="gray"	r="50.0" cx="2881.519" cy="3422.919" />
<line    fill="none"	stroke="rgb(255,200,0)"	stroke-width="40.0" stroke-linecap="round" x1="3242.204" y1="3713.954" x2="2918.32" y2="3401.673" />
<line    fill="none"	stroke="rgb(255,200,0)"	stroke-width="40.0" stroke-linecap="round" x1="2990.02" y1="3859.552" x2="2881.519" y2="3422.919" />
<circle  fill="gray"	stroke="gray"	r="50.0" cx="2396.978" cy="4027.415" />
<circle  fill="gray"	stroke="gray"	r="50.0" cx="2105.896" cy="4035.589" />
<circle  fill="gray"	stroke="gray"	r="50.0" cx="2260.536" cy="3598.691" />
<circle  fill="gray"	stroke="gray"	r="50.0" cx="2218.06" cy="3599.884" />
<line    fill="none"	stroke="rgb(255,200,0)"	stroke-width="40.0" stroke-linecap="round" x1="2396.978" y1="4027.415" x2="2260.536" y2="3598.691" />
<line    fill="none"	stroke="rgb(255,200,0)"	stroke-width="40.0" stroke-linecap="round" x1="2105.896" y1="4035.589" x2="2218.06" y2="3599.884" />
<circle  fill="gray"	stroke="gray"	r="50.0" cx="2003.022" cy="4027.415" />
<circle  fill="gray"	stroke="gray"	r="50.0" cx="2049.963" cy="3591.937" />
<line    fill="none"	stroke="rgb(255,200,0)"	stroke-width="40.0" stroke-linecap="round" x1="2003.022" y1="4027.415" x2="2049.963" y2="3591.937" />
<circle  fill="gray"	stroke="gray"	r="50.0" cx="1525.073" cy="3909.596" />
<circle  fill="gray"	stroke="gray"	r="50.0" cx="1263.542" cy="3781.547" />
<circle  fill="gray"	stroke="gray"	r="50.0" cx="1603.525" cy="3466.577" />
<circle  fill="gray"	stroke="gray"	r="50.0" cx="1565.36" cy="3447.891" />
<line    fill="none"	stroke="rgb(255,200,0)"	stroke-width="40.0" stroke-linecap="round" x1="1525.073" y1="3909.596" x2="1603.525" y2="3466.577" />
<line    fill="none"	stroke="rgb(255,200,0)"	stroke-width="40.0" stroke-linecap="round" x1="1263.542" y1="3781.547" x2="1565.36" y2="3447.891" />
<circle  fill="gray"	stroke="gray"	r="50.0" cx="1176.254" cy="3726.495" />
<circle  fill="gray"	stroke="gray"	r="50.0" cx="1420.215" cy="3362.728" />
<line    fill="none"	stroke="rgb(255,200,0)"	stroke-width="40.0" stroke-linecap="round" x1="1176.254" y1="3726.495" x2="1420.215" y2="3362.728" />
<circle  fill="gray"	stroke="gray"	r="50.0" cx="1056.91" cy="3639.302" />
<circle  fill="gray"	stroke="gray"	r="50.0" cx="1329.311" cy="3296.312" />
<line    fill="none"	stroke="rgb(255,200,0)"	stroke-width="40.0" stroke-linecap="round" x1="1056.91" y1="3639.302" x2="1329.311" y2="3296.312" />
<circle  fill="gray"	stroke="gray"	r="50.0" cx="807.823" cy="3400.037" />
<circle  fill="gray"	stroke="gray"	r="50.0" cx="635.77" cy="3165.105" />
<circle  fill="gray"	stroke="gray"	r="50.0" cx="1083.19" cy="3044.237" />
<circle  fill="gray"	stroke="gray"	r="50.0" cx="1058.083" cy="3009.954" />
<line    fill="none"	stroke="rgb(255,200,0)"	stroke-width="40.0" stroke-linecap="round" x1="807.823" y1="3400.037" x2="1083.19" y2="3044.237" />
<line    fill="none"	stroke="rgb(255,200,0)"	stroke-width="40.0" stroke-linecap="round" x1="635.77" y1="3165.105" x2="1058.083" y2="3009.954" />
<circle  fill="gray"	stroke="gray"	r="50.0" cx="584.069" cy="3075.792" />
<circle  fill="gray"	stroke="gray"	r="50.0" cx="969.149" cy="2867.088" />
<line    fill="none"	stroke="rgb(255,200,0)"	stroke-width="40.0" stroke-linecap="round" x1="584.069" y1="3075.792" x2="969.149" y2="2867.088" />
<circle  fill="gray"	stroke="gray"	r="50.0" cx="518.924" cy="2943.12" />
<circle  fill="gray"	stroke="gray"	r="50.0" cx="919.528" cy="2766.032" />
<line    fill="none"	stroke="rgb(255,200,0)"	stroke-width="40.0" stroke-linecap="round" x1="518.924" y1="2943.12" x2="919.528" y2="2766.032" />
<circle  fill="gray"	stroke="gray"	r="50.0" cx="464.649" cy="2805.642" />
<circle  fill="gray"	stroke="gray"	r="50.0" cx="878.188" cy="2661.316" />
<line    fill="none"	stroke="rgb(255,200,0)"	stroke-width="40.0" stroke-linecap="round" x1="464.649" y1="2805.642" x2="878.188" y2="2661.316" />
<circle  fill="gray"	stroke="gray"	r="50.0" cx="371.851" cy="2390.043" />
<circle  fill="gray"	stroke="gray"	r="50.0" cx="807.504" cy="2344.755" />
<line    fill="none"	stroke="rgb(255,200,0)"	stroke-width="40.0" stroke-linecap="round" x1="371.851" y1="2390.043" x2="807.504" y2="2344.755" />
<circle  fill="gray"	stroke="gray"	r="50.0" cx="363.873" cy="2282.959" />
<circle  fill="gray"	stroke="gray"	r="50.0" cx="801.427" cy="2263.19" />
<circle  fill="gray"	stroke="gray"	r="50.0" cx="371.851" cy="2009.957" />
<circle  fill="gray"	stroke="gray"	r="50.0" cx="807.504" cy="2055.245" />
<line    fill="none"	stroke="rgb(255,200,0)"	stroke-width="40.0" stroke-linecap="round" x1="371.851" y1="2009.957" x2="801.427" y2="2263.19" />
<line    fill="none"	stroke="rgb(255,200,0)"	stroke-width="40.0" stroke-linecap="round" x1="363.873" y1="2282.959" x2="807.504" y2="2055.245" />
<circle  fill="gray"	stroke="gray"	r="50.0" cx="544.365" cy="1401.804" />
<circle  fill="gray"	stroke="gray"	r="50.0" cx="938.907" cy="1592.016" />
<circle  fill="gray"	stroke="gray"	r="50.0" cx="680.924" cy="1165.276" />
<circle  fill="gray"	stroke="gray"	r="50.0" cx="1042.924" cy="1411.854" />
<line    fill="none"	stroke="rgb(255,200,0)"	stroke-width="40.0" stroke-linecap="round" x1="680.924" y1="1165.276" x2="938.907" y2="1592.016" />
<line    fill="none"	stroke="rgb(255,200,0)"	stroke-width="40.0" stroke-linecap="round" x1="544.365" y1="1401.804" x2="1042.924" y2="1411.854" />
<circle  fill="gray"	stroke="gray"	r="50.0" cx="1121.344" cy="711.798" />
<circle  fill="gray"	stroke="gray"	r="50.0" cx="1378.39" cy="1066.44" />
<circle  fill="gray"	stroke="gray"	r="50.0" cx="1353.781" cy="568.388" />
<circle  fill="gray"	stroke="gray"	r="50.0" cx="1555.437" cy="957.205" />
<line    fill="none"	stroke="rgb(255,200,0)"	stroke-width="40.0" stroke-linecap="round" x1="1353.781" y1="568.388" x2="1378.39" y2="1066.44" />
<line    fill="none"	stroke="rgb(255,200,0)"	stroke-width="40.0" stroke-linecap="round" x1="1121.344" y1="711.798" x2="1555.437" y2="957.205" />
<circle  fill="gray"	stroke="gray"	r="50.0" cx="1450.507" cy="521.755" />
<circle  fill="gray"	stroke="gray"	r="50.0" cx="1629.113" cy="921.685" />
<line    fill="none"	stroke="rgb(255,200,0)"	stroke-width="40.0" stroke-linecap="round" x1="1450.507" y1="521.755" x2="1629.113" y2="921.685" />
<circle  fill="gray"	stroke="gray"	r="50.0" cx="1936.606" cy="380.971" />
<circle  fill="gray"	stroke="gray"	r="50.0" cx="1999.373" cy="814.45" />
<circle  fill="gray"	stroke="gray"	r="50.0" cx="2209.066" cy="362.022" />
<circle  fill="gray"	stroke="gray"	r="50.0" cx="2206.905" cy="800.017" />
<line    fill="none"	stroke="rgb(255,200,0)"	stroke-width="40.0" stroke-linecap="round" x1="2209.066" y1="362.022" x2="1999.373" y2="814.45" />
<line    fill="none"	stroke="rgb(255,200,0)"	stroke-width="40.0" stroke-linecap="round" x1="1936.606" y1="380.971" x2="2206.905" y2="800.017" />
<circle  fill="gray"	stroke="gray"	r="50.0" cx="2316.383" cy="365.688" />
<circle  fill="gray"	stroke="gray"	r="50.0" cx="2288.649" cy="802.809" />
<line    fill="none"	stroke="rgb(255,200,0)"	stroke-width="40.0" stroke-linecap="round" x1="2316.383" y1="365.688" x2="2288.649" y2="802.809" />
<circle  fill="gray"	stroke="gray"	r="50.0" cx="2463.394" cy="380.971" />
<circle  fill="gray"	stroke="gray"	r="50.0" cx="2400.627" cy="814.45" />
<line    fill="none"	stroke="rgb(255,200,0)"	stroke-width="40.0" stroke-linecap="round" x1="2463.394" y1="380.971" x2="2400.627" y2="814.45" />
<circle  fill="gray"	stroke="gray"	r="50.0" cx="3119.0" cy="608.245" />
<circle  fill="gray"	stroke="gray"	r="50.0" cx="2900.0" cy="987.564" />
<line    fill="none"	stroke="rgb(255,200,0)"	stroke-width="40.0" stroke-linecap="round" x1="3119.0" y1="608.245" x2="2900.0" y2="987.564" />
<circle  fill="gray"	stroke="gray"	r="50.0" cx="3753.517" cy="1217.742" />
<circle  fill="gray"	stroke="gray"	r="50.0" cx="3383.31" cy="1451.817" />
<line    fill="none"	stroke="rgb(255,200,0)"	stroke-width="40.0" stroke-linecap="round" x1="3753.517" y1="1217.742" x2="3383.31" y2="1451.817" />
<circle  fill="gray"	stroke="gray"	r="50.0" cx="3827.418" cy="1345.744" />
<circle  fill="gray"	stroke="gray"	r="50.0" cx="3439.6" cy="1549.315" />
<line    fill="none"	stroke="rgb(255,200,0)"	stroke-width="40.0" stroke-linecap="round" x1="3827.418" y1="1345.744" x2="3439.6" y2="1549.315" />
<rect    fill="gray"	stroke="gray"	x="1910.0" y="1910.0" width="580.0" height="580.0" />
<circle  fill="white"	stroke="black"	r="40.0" cx="2200.0" cy="2200.0" />
<line    fill="none"	stroke="blue"	stroke-width="40.0" stroke-linecap="round" x1="2200.0" y1="2200.0" x2="3440.858" y2="1981.203" />
<line    fill="none"	stroke="blue"	stroke-width="60.0" stroke-linecap="round" x1="2200.0" y1="2200.0" x2="2870.854" y2="2705.525" />
</g>
</svg>
