<?xml version="1.0" encoding="utf-8"?>
<!DOCTYPE svg PUBLIC "-//W3C//DTD SVG 1.1//EN" "http://www.w3.org/Graphics/SVG/1.1/DTD/svg11.dtd">
<svg version="1.1" id="Layer_1" xmlns="http://www.w3.org/2000/svg" xmlns:xlink="http://www.w3.org/1999/xlink" x="0px" y="0px"
	 width="440.0mm" height="440.0mm"
	 viewBox="0 0 4400.0 4400.0"
	 xml:space="preserve">
<g>
<circle  fill="rgb(0,0,0)"	stroke="rgb(0,0,0)"	r="2200.0" cx="2200.0" cy="2200.0" />
<circle  fill="rgb(128,128,128)"	stroke="rgb(128,128,128)"	r="50.0" cx="4032.0571860817536" cy="2052.316328166558" />
<circle  fill="rgb(255,255,255)"	stroke="rgb(0,0,0)"	r="30.0" cx="4032.0571860817536" cy="2052.316328166558" />
<circle  fill="rgb(128,128,128)"	stroke="rgb(128,128,128)"	r="50.0" cx="3595.473373511673" cy="2087.509716775398" />
<circle  fill="rgb(255,255,255)"	stroke="rgb(0,0,0)"	r="30.0" cx="3595.473373511673" cy="2087.509716775398" />
<circle  fill="rgb(128,128,128)"	stroke="rgb(128,128,128)"	r="50.0" cx="4038.0" cy="2200.0" />
<circle  fill="rgb(255,255,255)"	stroke="rgb(0,0,0)"	r="30.0" cx="4038.0" cy="2200.0" />
<circle  fill="rgb(128,128,128)"	stroke="rgb(128,128,128)"	r="50.0" cx="3600.0" cy="2200.0" />
<circle  fill="rgb(255,255,255)"	stroke="rgb(0,0,0)"	r="30.0" cx="3600.0" cy="2200.0" />
<circle  fill="rgb(128,128,128)"	stroke="rgb(128,128,128)"	r="50.0" cx="4032.0571860817536" cy="2347.683671833442" />
<circle  fill="rgb(255,255,255)"	stroke="rgb(0,0,0)"	r="30.0" cx="4032.0571860817536" cy="2347.683671833442" />
<circle  fill="rgb(128,128,128)"	stroke="rgb(128,128,128)"	r="50.0" cx="3595.473373511673" cy="2312.490283224602" />
<circle  fill="rgb(255,255,255)"	stroke="rgb(0,0,0)"	r="30.0" cx="3595.473373511673" cy="2312.490283224602" />
<circle  fill="rgb(128,128,128)"	stroke="rgb(128,128,128)"	r="50.0" cx="4160.0" cy="2200.0" />
<circle  fill="rgb(255,255,255)"	stroke="rgb(0,0,0)"	r="30.0" cx="4160.0" cy="2200.0" />
<circle  fill="rgb(128,128,128)"	stroke="rgb(128,128,128)"	r="50.0" cx="4238.76988550496" cy="2414.2833496986896" />
<circle  fill="rgb(255,255,255)"	stroke="rgb(0,0,0)"	r="30.0" cx="4238.76988550496" cy="2414.2833496986896" />
<circle  fill="rgb(128,128,128)"	stroke="rgb(128,128,128)"	r="50.0" cx="4205.202581504302" cy="2626.218966176407" />
<circle  fill="rgb(255,255,255)"	stroke="rgb(0,0,0)"	r="30.0" cx="4205.202581504302" cy="2626.218966176407" />
<circle  fill="rgb(128,128,128)"	stroke="rgb(128,128,128)"	r="50.0" cx="4149.665858405065" cy="2833.484838468642" />
<circle  fill="rgb(255,255,255)"	stroke="rgb(0,0,0)"	r="30.0" cx="4149.665858405065" cy="2833.484838468642" />
<circle  fill="rgb(128,128,128)"	stroke="rgb(128,128,128)"	r="50.0" cx="4072.7681881673316" cy="3033.8101183053905" />
<circle  fill="rgb(255,255,255)"	stroke="rgb(0,0,0)"	r="30.0" cx="4072.7681881673316" cy="3033.8101183053905" />
<circle  fill="rgb(128,128,128)"	stroke="rgb(128,128,128)"	r="50.0" cx="3881.0761563248784" cy="2943.1197458256456" />
<circle  fill="rgb(255,255,255)"	stroke="rgb(0,0,0)"	r="30.0" cx="3881.0761563248784" cy="2943.1197458256456" />
<circle  fill="rgb(128,128,128)"	stroke="rgb(128,128,128)"	r="50.0" cx="3480.471501009157" cy="2766.032450574485" />
<circle  fill="rgb(255,255,255)"	stroke="rgb(0,0,0)"	r="30.0" cx="3480.471501009157" cy="2766.032450574485" />
<circle  fill="rgb(128,128,128)"	stroke="rgb(128,128,128)"	r="50.0" cx="3836.7191287924543" cy="3036.2980888683583" />
<circle  fill="rgb(255,255,255)"	stroke="rgb(0,0,0)"	r="30.0" cx="3836.7191287924543" cy="3036.2980888683583" />
<circle  fill="rgb(128,128,128)"	stroke="rgb(128,128,128)"	r="50.0" cx="3684.0986561012837" cy="3284.294784160822" />
<circle  fill="rgb(255,255,255)"	stroke="rgb(0,0,0)"	r="30.0" cx="3684.0986561012837" cy="3284.294784160822" />
<circle  fill="rgb(128,128,128)"	stroke="rgb(128,128,128)"	r="50.0" cx="3403.304750612425" cy="2915.5820548012434" />
<circle  fill="rgb(128,128,128)"	stroke="rgb(128,128,128)"	r="50.0" cx="3381.03334579648" cy="2951.771398841943" />
<circle  fill="rgb(255,255,255)"	stroke="rgb(0,0,0)"	r="30.0" cx="3403.304750612425" cy="2915.5820548012434" />
<circle  fill="rgb(255,255,255)"	stroke="rgb(0,0,0)"	r="30.0" cx="3381.03334579648" cy="2951.771398841943" />
<circle  fill="rgb(128,128,128)"	stroke="rgb(128,128,128)"	r="50.0" cx="3897.4097914175" cy="3180.0" />
<circle  fill="rgb(255,255,255)"	stroke="rgb(0,0,0)"	r="30.0" cx="3897.4097914175" cy="3180.0" />
<circle  fill="rgb(128,128,128)"	stroke="rgb(128,128,128)"	r="50.0" cx="3858.484838468642" cy="3404.95976719957" />
<circle  fill="rgb(255,255,255)"	stroke="rgb(0,0,0)"	r="30.0" cx="3858.484838468642" cy="3404.95976719957" />
<circle  fill="rgb(128,128,128)"	stroke="rgb(128,128,128)"	r="50.0" cx="3723.4468922286583" cy="3571.7177430356596" />
<circle  fill="rgb(255,255,255)"	stroke="rgb(0,0,0)"	r="30.0" cx="3723.4468922286583" cy="3571.7177430356596" />
<circle  fill="rgb(128,128,128)"	stroke="rgb(128,128,128)"	r="50.0" cx="3571.7177430356596" cy="3723.4468922286583" />
<circle  fill="rgb(255,255,255)"	stroke="rgb(0,0,0)"	r="30.0" cx="3571.7177430356596" cy="3723.4468922286583" />
<circle  fill="rgb(128,128,128)"	stroke="rgb(128,128,128)"	r="50.0" cx="3404.95976719957" cy="3858.484838468642" />
<circle  fill="rgb(255,255,255)"	stroke="rgb(0,0,0)"	r="30.0" cx="3404.95976719957" cy="3858.484838468642" />
<circle  fill="rgb(128,128,128)"	stroke="rgb(128,128,128)"	r="50.0" cx="3242.2038100965965" cy="3713.9535059638183" />
<circle  fill="rgb(255,255,255)"	stroke="rgb(0,0,0)"	r="30.0" cx="3242.2038100965965" cy="3713.9535059638183" />
<circle  fill="rgb(128,128,128)"	stroke="rgb(128,128,128)"	r="50.0" cx="2990.0202912648842" cy="3859.5517284464945" />
<circle  fill="rgb(255,255,255)"	stroke="rgb(0,0,0)"	r="30.0" cx="2990.0202912648842" cy="3859.5517284464945" />
<circle  fill="rgb(128,128,128)"	stroke="rgb(128,128,128)"	r="50.0" cx="2918.3195411920606" cy="3401.672599646687" />
<circle  fill="rgb(128,128,128)"	stroke="rgb(128,128,128)"	r="50.0" cx="2881.519227729688" cy="3422.919270530451" />
<circle  fill="rgb(255,255,255)"	stroke="rgb(0,0,0)"	r="30.0" cx="2918.3195411920606" cy="3401.672599646687" />
<circle  fill="rgb(255,255,255)"	stroke="rgb(0,0,0)"	r="30.0" cx="2881.519227729688" cy="3422.919270530451" />
<circle  fill="rgb(128,128,128)"	stroke="rgb(128,128,128)"	r="50.0" cx="3180.0" cy="3897.4097914175" />
<circle  fill="rgb(255,255,255)"	stroke="rgb(0,0,0)"	r="30.0" cx="3180.0" cy="3897.4097914175" />
<circle  fill="rgb(128,128,128)"	stroke="rgb(128,128,128)"	r="50.0" cx="3033.8101183053905" cy="4072.7681881673316" />
<circle  fill="rgb(255,255,255)"	stroke="rgb(0,0,0)"	r="30.0" cx="3033.8101183053905" cy="4072.7681881673316" />
<circle  fill="rgb(128,128,128)"	stroke="rgb(128,128,128)"	r="50.0" cx="2833.484838468642" cy="4149.665858405065" />
<circle  fill="rgb(255,255,255)"	stroke="rgb(0,0,0)"	r="30.0" cx="2833.484838468642" cy="4149.665858405065" />
<circle  fill="rgb(128,128,128)"	stroke="rgb(128,128,128)"	r="50.0" cx="2626.218966176407" cy="4205.202581504302" />
<circle  fill="rgb(255,255,255)"	stroke="rgb(0,0,0)"	r="30.0" cx="2626.218966176407" cy="4205.202581504302" />
<circle  fill="rgb(128,128,128)"	stroke="rgb(128,128,128)"	r="50.0" cx="2414.2833496986896" cy="4238.76988550496" />
<circle  fill="rgb(255,255,255)"	stroke="rgb(0,0,0)"	r="30.0" cx="2414.2833496986896" cy="4238.76988550496" />
<circle  fill="rgb(128,128,128)"	stroke="rgb(128,128,128)"	r="50.0" cx="2396.977500223595" cy="4027.4145299864676" />
<circle  fill="rgb(255,255,255)"	stroke="rgb(0,0,0)"	r="30.0" cx="2396.977500223595" cy="4027.4145299864676" />
<circle  fill="rgb(128,128,128)"	stroke="rgb(128,128,128)"	r="50.0" cx="2105.8958257001473" cy="4035.589388828379" />
<circle  fill="rgb(255,255,255)"	stroke="rgb(0,0,0)"	r="30.0" cx="2105.8958257001473" cy="4035.589388828379" />
<circle  fill="rgb(128,128,128)"	stroke="rgb(128,128,128)"	r="50.0" cx="2260.5364563374465" cy="3598.690579597255" />
<circle  fill="rgb(128,128,128)"	stroke="rgb(128,128,128)"	r="50.0" cx="2218.059862643933" cy="3599.88350992548" />
<circle  fill="rgb(255,255,255)"	stroke="rgb(0,0,0)"	r="30.0" cx="2260.5364563374465" cy="3598.690579597255" />
<circle  fill="rgb(255,255,255)"	stroke="rgb(0,0,0)"	r="30.0" cx="2218.059862643933" cy="3599.88350992548" />
<circle  fill="rgb(128,128,128)"	stroke="rgb(128,128,128)"	r="50.0" cx="2003.022499776405" cy="4027.4145299864676" />
<circle  fill="rgb(255,255,255)"	stroke="rgb(0,0,0)"	r="30.0" cx="2003.022499776405" cy="4027.4145299864676" />
<circle  fill="rgb(128,128,128)"	stroke="rgb(128,128,128)"	r="50.0" cx="2049.962731059286" cy="3591.937073983164" />
<circle  fill="rgb(255,255,255)"	stroke="rgb(0,0,0)"	r="30.0" cx="2049.962731059286" cy="3591.937073983164" />
<circle  fill="rgb(128,128,128)"	stroke="rgb(128,128,128)"	r="50.0" cx="2200.0" cy="4160.0" />
<circle  fill="rgb(255,255,255)"	stroke="rgb(0,0,0)"	r="30.0" cx="2200.0" cy="4160.0" />
<circle  fill="rgb(128,128,128)"	stroke="rgb(128,128,128)"	r="50.0" cx="1985.7166503013102" cy="4238.76988550496" />
<circle  fill="rgb(255,255,255)"	stroke="rgb(0,0,0)"	r="30.0" cx="1985.7166503013102" cy="4238.76988550496" />
<circle  fill="rgb(128,128,128)"	stroke="rgb(128,128,128)"	r="50.0" cx="1773.7810338235934" cy="4205.202581504302" />
<circle  fill="rgb(255,255,255)"	stroke="rgb(0,0,0)"	r="30.0" cx="1773.7810338235934" cy="4205.202581504302" />
<circle  fill="rgb(128,128,128)"	stroke="rgb(128,128,128)"	r="50.0" cx="1566.515161531358" cy="4149.665858405065" />
<circle  fill="rgb(255,255,255)"	stroke="rgb(0,0,0)"	r="30.0" cx="1566.515161531358" cy="4149.665858405065" />
<circle  fill="rgb(128,128,128)"	stroke="rgb(128,128,128)"	r="50.0" cx="1366.1898816946095" cy="4072.7681881673316" />
<circle  fill="rgb(255,255,255)"	stroke="rgb(0,0,0)"	r="30.0" cx="1366.1898816946095" cy="4072.7681881673316" />
<circle  fill="rgb(128,128,128)"	stroke="rgb(128,128,128)"	r="50.0" cx="1525.073243430912" cy="3909.5958216102226" />
<circle  fill="rgb(255,255,255)"	stroke="rgb(0,0,0)"	r="30.0" cx="1525.073243430912" cy="3909.5958216102226" />
<circle  fill="rgb(128,128,128)"	stroke="rgb(128,128,128)"	r="50.0" cx="1263.5416485041137" cy="3781.5466341254714" />
<circle  fill="rgb(255,255,255)"	stroke="rgb(0,0,0)"	r="30.0" cx="1263.5416485041137" cy="3781.5466341254714" />
<circle  fill="rgb(128,128,128)"	stroke="rgb(128,128,128)"	r="50.0" cx="1603.5245132623963" cy="3466.5768803042074" />
<circle  fill="rgb(128,128,128)"	stroke="rgb(128,128,128)"	r="50.0" cx="1565.360065727492" cy="3447.8910825174553" />
<circle  fill="rgb(255,255,255)"	stroke="rgb(0,0,0)"	r="30.0" cx="1603.5245132623963" cy="3466.5768803042074" />
<circle  fill="rgb(255,255,255)"	stroke="rgb(0,0,0)"	r="30.0" cx="1565.360065727492" cy="3447.8910825174553" />
<circle  fill="rgb(128,128,128)"	stroke="rgb(128,128,128)"	r="50.0" cx="1176.2541018292995" cy="3726.4954425017672" />
<circle  fill="rgb(255,255,255)"	stroke="rgb(0,0,0)"	r="30.0" cx="1176.2541018292995" cy="3726.4954425017672" />
<circle  fill="rgb(128,128,128)"	stroke="rgb(128,128,128)"	r="50.0" cx="1420.2153115130682" cy="3362.7277581623907" />
<circle  fill="rgb(255,255,255)"	stroke="rgb(0,0,0)"	r="30.0" cx="1420.2153115130682" cy="3362.7277581623907" />
<circle  fill="rgb(128,128,128)"	stroke="rgb(128,128,128)"	r="50.0" cx="1056.9099665663623" cy="3639.301627687777" />
<circle  fill="rgb(255,255,255)"	stroke="rgb(0,0,0)"	r="30.0" cx="1056.9099665663623" cy="3639.301627687777" />
<circle  fill="rgb(128,128,128)"	stroke="rgb(128,128,128)"	r="50.0" cx="1329.3111823682848" cy="3296.312447640309" />
<circle  fill="rgb(255,255,255)"	stroke="rgb(0,0,0)"	r="30.0" cx="1329.3111823682848" cy="3296.312447640309" />
<circle  fill="rgb(128,128,128)"	stroke="rgb(128,128,128)"	r="50.0" cx="1220.0000000000005" cy="3897.4097914175" />
<circle  fill="rgb(255,255,255)"	stroke="rgb(0,0,0)"	r="30.0" cx="1220.0000000000005" cy="3897.4097914175" />
<circle  fill="rgb(128,128,128)"	stroke="rgb(128,128,128)"	r="50.0" cx="995.0402328004302" cy="3858.484838468642" />
<circle  fill="rgb(255,255,255)"	stroke="rgb(0,0,0)"	r="30.0" cx="995.0402328004302" cy="3858.484838468642" />
<circle  fill="rgb(128,128,128)"	stroke="rgb(128,128,128)"	r="50.0" cx="828.2822569643406" cy="3723.4468922286583" />
<circle  fill="rgb(255,255,255)"	stroke="rgb(0,0,0)"	r="30.0" cx="828.2822569643406" cy="3723.4468922286583" />
<circle  fill="rgb(128,128,128)"	stroke="rgb(128,128,128)"	r="50.0" cx="676.5531077713422" cy="3571.7177430356596" />
<circle  fill="rgb(255,255,255)"	stroke="rgb(0,0,0)"	r="30.0" cx="676.5531077713422" cy="3571.7177430356596" />
<circle  fill="rgb(128,128,128)"	stroke="rgb(128,128,128)"	r="50.0" cx="541.515161531358" cy="3404.9597671995703" />
<circle  fill="rgb(255,255,255)"	stroke="rgb(0,0,0)"	r="30.0" cx="541.515161531358" cy="3404.9597671995703" />
<circle  fill="rgb(128,128,128)"	stroke="rgb(128,128,128)"	r="50.0" cx="807.823192225294" cy="3400.0365560657847" />
<circle  fill="rgb(255,255,255)"	stroke="rgb(0,0,0)"	r="30.0" cx="807.823192225294" cy="3400.0365560657847" />
<circle  fill="rgb(128,128,128)"	stroke="rgb(128,128,128)"	r="50.0" cx="635.7696033785016" cy="3165.104795493914" />
<circle  fill="rgb(255,255,255)"	stroke="rgb(0,0,0)"	r="30.0" cx="635.7696033785016" cy="3165.104795493914" />
<circle  fill="rgb(128,128,128)"	stroke="rgb(128,128,128)"	r="50.0" cx="1083.190278776781" cy="3044.2369611556437" />
<circle  fill="rgb(128,128,128)"	stroke="rgb(128,128,128)"	r="50.0" cx="1058.0830630823511" cy="3009.9541401712904" />
<circle  fill="rgb(255,255,255)"	stroke="rgb(0,0,0)"	r="30.0" cx="1083.190278776781" cy="3044.2369611556437" />
<circle  fill="rgb(255,255,255)"	stroke="rgb(0,0,0)"	r="30.0" cx="1058.0830630823511" cy="3009.9541401712904" />
<circle  fill="rgb(128,128,128)"	stroke="rgb(128,128,128)"	r="50.0" cx="584.0690969150044" cy="3075.7918225554004" />
<circle  fill="rgb(255,255,255)"	stroke="rgb(0,0,0)"	r="30.0" cx="584.0690969150044" cy="3075.7918225554004" />
<circle  fill="rgb(128,128,128)"	stroke="rgb(128,128,128)"	r="50.0" cx="969.1494753433112" cy="2867.0884393784336" />
<circle  fill="rgb(255,255,255)"	stroke="rgb(0,0,0)"	r="30.0" cx="969.1494753433112" cy="2867.0884393784336" />
<circle  fill="rgb(128,128,128)"	stroke="rgb(128,128,128)"	r="50.0" cx="518.9238436751211" cy="2943.1197458256447" />
<circle  fill="rgb(255,255,255)"	stroke="rgb(0,0,0)"	r="30.0" cx="518.9238436751211" cy="2943.1197458256447" />
<circle  fill="rgb(128,128,128)"	stroke="rgb(128,128,128)"	r="50.0" cx="919.528498990843" cy="2766.0324505744848" />
<circle  fill="rgb(255,255,255)"	stroke="rgb(0,0,0)"	r="30.0" cx="919.528498990843" cy="2766.0324505744848" />
<circle  fill="rgb(128,128,128)"	stroke="rgb(128,128,128)"	r="50.0" cx="464.6494530896882" cy="2805.6422040595276" />
<circle  fill="rgb(255,255,255)"	stroke="rgb(0,0,0)"	r="30.0" cx="464.6494530896882" cy="2805.6422040595276" />
<circle  fill="rgb(128,128,128)"	stroke="rgb(128,128,128)"	r="50.0" cx="878.1878315155407" cy="2661.316151079074" />
<circle  fill="rgb(255,255,255)"	stroke="rgb(0,0,0)"	r="30.0" cx="878.1878315155407" cy="2661.316151079074" />
<circle  fill="rgb(128,128,128)"	stroke="rgb(128,128,128)"	r="50.0" cx="502.59020858250005" cy="3180.0" />
<circle  fill="rgb(255,255,255)"	stroke="rgb(0,0,0)"	r="30.0" cx="502.59020858250005" cy="3180.0" />
<circle  fill="rgb(128,128,128)"	stroke="rgb(128,128,128)"	r="50.0" cx="327.2318118326684" cy="3033.810118305391" />
<circle  fill="rgb(255,255,255)"	stroke="rgb(0,0,0)"	r="30.0" cx="327.2318118326684" cy="3033.810118305391" />
<circle  fill="rgb(128,128,128)"	stroke="rgb(128,128,128)"	r="50.0" cx="250.33414159493532" cy="2833.4848384686425" />
<circle  fill="rgb(255,255,255)"	stroke="rgb(0,0,0)"	r="30.0" cx="250.33414159493532" cy="2833.4848384686425" />
<circle  fill="rgb(128,128,128)"	stroke="rgb(128,128,128)"	r="50.0" cx="194.79741849569837" cy="2626.2189661764064" />
<circle  fill="rgb(255,255,255)"	stroke="rgb(0,0,0)"	r="30.0" cx="194.79741849569837" cy="2626.2189661764064" />
<circle  fill="rgb(128,128,128)"	stroke="rgb(128,128,128)"	r="50.0" cx="161.23011449503974" cy="2414.28334969869" />
<circle  fill="rgb(255,255,255)"	stroke="rgb(0,0,0)"	r="30.0" cx="161.23011449503974" cy="2414.28334969869" />
<circle  fill="rgb(128,128,128)"	stroke="rgb(128,128,128)"	r="50.0" cx="371.85125458231846" cy="2390.0425337332604" />
<circle  fill="rgb(255,255,255)"	stroke="rgb(0,0,0)"	r="30.0" cx="371.85125458231846" cy="2390.0425337332604" />
<circle  fill="rgb(128,128,128)"	stroke="rgb(128,128,128)"	r="50.0" cx="807.5036759604168" cy="2344.754922321308" />
<circle  fill="rgb(255,255,255)"	stroke="rgb(0,0,0)"	r="30.0" cx="807.5036759604168" cy="2344.754922321308" />
<circle  fill="rgb(128,128,128)"	stroke="rgb(128,128,128)"	r="50.0" cx="363.8731593531079" cy="2282.959177045476" />
<circle  fill="rgb(255,255,255)"	stroke="rgb(0,0,0)"	r="30.0" cx="363.8731593531079" cy="2282.959177045476" />
<circle  fill="rgb(128,128,128)"	stroke="rgb(128,128,128)"	r="50.0" cx="801.4267807912681" cy="2263.1897975319184" />
<circle  fill="rgb(255,255,255)"	stroke="rgb(0,0,0)"	r="30.0" cx="801.4267807912681" cy="2263.1897975319184" />
<circle  fill="rgb(128,128,128)"	stroke="rgb(128,128,128)"	r="50.0" cx="371.85125458231846" cy="2009.95746626674" />
<circle  fill="rgb(255,255,255)"	stroke="rgb(0,0,0)"	r="30.0" cx="371.85125458231846" cy="2009.95746626674" />
<circle  fill="rgb(128,128,128)"	stroke="rgb(128,128,128)"	r="50.0" cx="807.5036759604168" cy="2055.2450776786923" />
<circle  fill="rgb(255,255,255)"	stroke="rgb(0,0,0)"	r="30.0" cx="807.5036759604168" cy="2055.2450776786923" />
<circle  fill="rgb(128,128,128)"	stroke="rgb(128,128,128)"	r="50.0" cx="240.0" cy="2200.0000000000005" />
<circle  fill="rgb(255,255,255)"	stroke="rgb(0,0,0)"	r="30.0" cx="240.0" cy="2200.0000000000005" />
<circle  fill="rgb(128,128,128)"	stroke="rgb(128,128,128)"	r="50.0" cx="161.23011449503974" cy="1985.7166503013104" />
<circle  fill="rgb(255,255,255)"	stroke="rgb(0,0,0)"	r="30.0" cx="161.23011449503974" cy="1985.7166503013104" />
<circle  fill="rgb(128,128,128)"	stroke="rgb(128,128,128)"	r="50.0" cx="194.7974184956986" cy="1773.7810338235931" />
<circle  fill="rgb(255,255,255)"	stroke="rgb(0,0,0)"	r="30.0" cx="194.7974184956986" cy="1773.7810338235931" />
<circle  fill="rgb(128,128,128)"	stroke="rgb(128,128,128)"	r="50.0" cx="250.3341415949351" cy="1566.515161531358" />
<circle  fill="rgb(255,255,255)"	stroke="rgb(0,0,0)"	r="30.0" cx="250.3341415949351" cy="1566.515161531358" />
<circle  fill="rgb(128,128,128)"	stroke="rgb(128,128,128)"	r="50.0" cx="327.2318118326682" cy="1366.1898816946095" />
<circle  fill="rgb(255,255,255)"	stroke="rgb(0,0,0)"	r="30.0" cx="327.2318118326682" cy="1366.1898816946095" />
<circle  fill="rgb(128,128,128)"	stroke="rgb(128,128,128)"	r="50.0" cx="544.3651807499577" cy="1401.8036925123747" />
<circle  fill="rgb(255,255,255)"	stroke="rgb(0,0,0)"	r="30.0" cx="544.3651807499577" cy="1401.8036925123747" />
<circle  fill="rgb(128,128,128)"	stroke="rgb(128,128,128)"	r="50.0" cx="938.907101768194" cy="1592.0158702488163" />
<circle  fill="rgb(255,255,255)"	stroke="rgb(0,0,0)"	r="30.0" cx="938.907101768194" cy="1592.0158702488163" />
<circle  fill="rgb(128,128,128)"	stroke="rgb(128,128,128)"	r="50.0" cx="680.9243108837595" cy="1165.2763408832197" />
<circle  fill="rgb(255,255,255)"	stroke="rgb(0,0,0)"	r="30.0" cx="680.9243108837595" cy="1165.2763408832197" />
<circle  fill="rgb(128,128,128)"	stroke="rgb(128,128,128)"	r="50.0" cx="1042.9238494217973" cy="1411.853578474705" />
<circle  fill="rgb(255,255,255)"	stroke="rgb(0,0,0)"	r="30.0" cx="1042.9238494217973" cy="1411.853578474705" />
<circle  fill="rgb(128,128,128)"	stroke="rgb(128,128,128)"	r="50.0" cx="502.5902085825003" cy="1219.9999999999998" />
<circle  fill="rgb(255,255,255)"	stroke="rgb(0,0,0)"	r="30.0" cx="502.5902085825003" cy="1219.9999999999998" />
<circle  fill="rgb(128,128,128)"	stroke="rgb(128,128,128)"	r="50.0" cx="541.5151615313575" cy="995.0402328004302" />
<circle  fill="rgb(255,255,255)"	stroke="rgb(0,0,0)"	r="30.0" cx="541.5151615313575" cy="995.0402328004302" />
<circle  fill="rgb(128,128,128)"	stroke="rgb(128,128,128)"	r="50.0" cx="676.5531077713417" cy="828.2822569643406" />
<circle  fill="rgb(255,255,255)"	stroke="rgb(0,0,0)"	r="30.0" cx="676.5531077713417" cy="828.2822569643406" />
<circle  fill="rgb(128,128,128)"	stroke="rgb(128,128,128)"	r="50.0" cx="828.2822569643408" cy="676.5531077713415" />
<circle  fill="rgb(255,255,255)"	stroke="rgb(0,0,0)"	r="30.0" cx="828.2822569643408" cy="676.5531077713415" />
<circle  fill="rgb(128,128,128)"	stroke="rgb(128,128,128)"	r="50.0" cx="995.0402328004297" cy="541.515161531358" />
<circle  fill="rgb(255,255,255)"	stroke="rgb(0,0,0)"	r="30.0" cx="995.0402328004297" cy="541.515161531358" />
<circle  fill="rgb(128,128,128)"	stroke="rgb(128,128,128)"	r="50.0" cx="1121.3439652785949" cy="711.7980114382674" />
<circle  fill="rgb(255,255,255)"	stroke="rgb(0,0,0)"	r="30.0" cx="1121.3439652785949" cy="711.7980114382674" />
<circle  fill="rgb(128,128,128)"	stroke="rgb(128,128,128)"	r="50.0" cx="1378.3903979271126" cy="1066.4402698659273" />
<circle  fill="rgb(255,255,255)"	stroke="rgb(0,0,0)"	r="30.0" cx="1378.3903979271126" cy="1066.4402698659273" />
<circle  fill="rgb(128,128,128)"	stroke="rgb(128,128,128)"	r="50.0" cx="1353.7813344749875" cy="568.3879229065915" />
<circle  fill="rgb(255,255,255)"	stroke="rgb(0,0,0)"	r="30.0" cx="1353.7813344749875" cy="568.3879229065915" />
<circle  fill="rgb(128,128,128)"	stroke="rgb(128,128,128)"	r="50.0" cx="1555.4373603182712" cy="957.2051643466964" />
<circle  fill="rgb(255,255,255)"	stroke="rgb(0,0,0)"	r="30.0" cx="1555.4373603182712" cy="957.2051643466964" />
<circle  fill="rgb(128,128,128)"	stroke="rgb(128,128,128)"	r="50.0" cx="1450.5072893037236" cy="521.7554777050073" />
<circle  fill="rgb(255,255,255)"	stroke="rgb(0,0,0)"	r="30.0" cx="1450.5072893037236" cy="521.7554777050073" />
<circle  fill="rgb(128,128,128)"	stroke="rgb(128,128,128)"	r="50.0" cx="1629.1132780333041" cy="921.6853475446194" />
<circle  fill="rgb(255,255,255)"	stroke="rgb(0,0,0)"	r="30.0" cx="1629.1132780333041" cy="921.6853475446194" />
<circle  fill="rgb(128,128,128)"	stroke="rgb(128,128,128)"	r="50.0" cx="1219.999999999999" cy="502.59020858250074" />
<circle  fill="rgb(255,255,255)"	stroke="rgb(0,0,0)"	r="30.0" cx="1219.999999999999" cy="502.59020858250074" />
<circle  fill="rgb(128,128,128)"	stroke="rgb(128,128,128)"	r="50.0" cx="1366.1898816946098" cy="327.231811832668" />
<circle  fill="rgb(255,255,255)"	stroke="rgb(0,0,0)"	r="30.0" cx="1366.1898816946098" cy="327.231811832668" />
<circle  fill="rgb(128,128,128)"	stroke="rgb(128,128,128)"	r="50.0" cx="1566.5151615313575" cy="250.33414159493532" />
<circle  fill="rgb(255,255,255)"	stroke="rgb(0,0,0)"	r="30.0" cx="1566.5151615313575" cy="250.33414159493532" />
<circle  fill="rgb(128,128,128)"	stroke="rgb(128,128,128)"	r="50.0" cx="1773.7810338235925" cy="194.7974184956986" />
<circle  fill="rgb(255,255,255)"	stroke="rgb(0,0,0)"	r="30.0" cx="1773.7810338235925" cy="194.7974184956986" />
<circle  fill="rgb(128,128,128)"	stroke="rgb(128,128,128)"	r="50.0" cx="1985.7166503013107" cy="161.23011449503952" />
<circle  fill="rgb(255,255,255)"	stroke="rgb(0,0,0)"	r="30.0" cx="1985.7166503013107" cy="161.23011449503952" />
<circle  fill="rgb(128,128,128)"	stroke="rgb(128,128,128)"	r="50.0" cx="1936.605643534104" cy="380.97074982783283" />
<circle  fill="rgb(255,255,255)"	stroke="rgb(0,0,0)"	r="30.0" cx="1936.605643534104" cy="380.97074982783283" />
<circle  fill="rgb(128,128,128)"	stroke="rgb(128,128,128)"	r="50.0" cx="1999.3731778823426" cy="814.4499726653787" />
<circle  fill="rgb(255,255,255)"	stroke="rgb(0,0,0)"	r="30.0" cx="1999.3731778823426" cy="814.4499726653787" />
<circle  fill="rgb(128,128,128)"	stroke="rgb(128,128,128)"	r="50.0" cx="2209.06581044532" cy="362.0223583838215" />
<circle  fill="rgb(255,255,255)"	stroke="rgb(0,0,0)"	r="30.0" cx="2209.06581044532" cy="362.0223583838215" />
<circle  fill="rgb(128,128,128)"	stroke="rgb(128,128,128)"	r="50.0" cx="2206.9054051270123" cy="800.017030325" />
<circle  fill="rgb(255,255,255)"	stroke="rgb(0,0,0)"	r="30.0" cx="2206.9054051270123" cy="800.017030325" />
<circle  fill="rgb(128,128,128)"	stroke="rgb(128,128,128)"	r="50.0" cx="2316.383354025497" cy="365.68843570516196" />
<circle  fill="rgb(255,255,255)"	stroke="rgb(0,0,0)"	r="30.0" cx="2316.383354025497" cy="365.68843570516196" />
<circle  fill="rgb(128,128,128)"	stroke="rgb(128,128,128)"	r="50.0" cx="2288.6489094862327" cy="802.8094722454987" />
<circle  fill="rgb(255,255,255)"	stroke="rgb(0,0,0)"	r="30.0" cx="2288.6489094862327" cy="802.8094722454987" />
<circle  fill="rgb(128,128,128)"	stroke="rgb(128,128,128)"	r="50.0" cx="2463.3943564658953" cy="380.97074982783283" />
<circle  fill="rgb(255,255,255)"	stroke="rgb(0,0,0)"	r="30.0" cx="2463.3943564658953" cy="380.97074982783283" />
<circle  fill="rgb(128,128,128)"	stroke="rgb(128,128,128)"	r="50.0" cx="2400.626822117657" cy="814.4499726653785" />
<circle  fill="rgb(255,255,255)"	stroke="rgb(0,0,0)"	r="30.0" cx="2400.626822117657" cy="814.4499726653785" />
<circle  fill="rgb(128,128,128)"	stroke="rgb(128,128,128)"	r="50.0" cx="2199.9999999999995" cy="240.0" />
<circle  fill="rgb(255,255,255)"	stroke="rgb(0,0,0)"	r="30.0" cx="2199.9999999999995" cy="240.0" />
<circle  fill="rgb(128,128,128)"	stroke="rgb(128,128,128)"	r="50.0" cx="2414.2833496986887" cy="161.23011449503952" />
<circle  fill="rgb(255,255,255)"	stroke="rgb(0,0,0)"	r="30.0" cx="2414.2833496986887" cy="161.23011449503952" />
<circle  fill="rgb(128,128,128)"	stroke="rgb(128,128,128)"	r="50.0" cx="2626.218966176407" cy="194.7974184956986" />
<circle  fill="rgb(255,255,255)"	stroke="rgb(0,0,0)"	r="30.0" cx="2626.218966176407" cy="194.7974184956986" />
<circle  fill="rgb(128,128,128)"	stroke="rgb(128,128,128)"	r="50.0" cx="2833.484838468642" cy="250.3341415949351" />
<circle  fill="rgb(255,255,255)"	stroke="rgb(0,0,0)"	r="30.0" cx="2833.484838468642" cy="250.3341415949351" />
<circle  fill="rgb(128,128,128)"	stroke="rgb(128,128,128)"	r="50.0" cx="3033.8101183053896" cy="327.23181183266774" />
<circle  fill="rgb(255,255,255)"	stroke="rgb(0,0,0)"	r="30.0" cx="3033.8101183053896" cy="327.23181183266774" />
<circle  fill="rgb(128,128,128)"	stroke="rgb(128,128,128)"	r="50.0" cx="3119.0" cy="608.2453078442018" />
<circle  fill="rgb(255,255,255)"	stroke="rgb(0,0,0)"	r="30.0" cx="3119.0" cy="608.2453078442018" />
<circle  fill="rgb(128,128,128)"	stroke="rgb(128,128,128)"	r="50.0" cx="2900.0" cy="987.564434701786" />
<circle  fill="rgb(255,255,255)"	stroke="rgb(0,0,0)"	r="30.0" cx="2900.0" cy="987.564434701786" />
<circle  fill="rgb(128,128,128)"	stroke="rgb(128,128,128)"	r="50.0" cx="3180.0" cy="502.5902085825003" />
<circle  fill="rgb(255,255,255)"	stroke="rgb(0,0,0)"	r="30.0" cx="3180.0" cy="502.5902085825003" />
<circle  fill="rgb(128,128,128)"	stroke="rgb(128,128,128)"	r="50.0" cx="3404.95976719957" cy="541.5151615313575" />
<circle  fill="rgb(255,255,255)"	stroke="rgb(0,0,0)"	r="30.0" cx="3404.95976719957" cy="541.5151615313575" />
<circle  fill="rgb(128,128,128)"	stroke="rgb(128,128,128)"	r="50.0" cx="3571.7177430356587" cy="676.553107771341" />
<circle  fill="rgb(255,255,255)"	stroke="rgb(0,0,0)"	r="30.0" cx="3571.7177430356587" cy="676.553107771341" />
<circle  fill="rgb(128,128,128)"	stroke="rgb(128,128,128)"	r="50.0" cx="3723.4468922286583" cy="828.2822569643408" />
<circle  fill="rgb(255,255,255)"	stroke="rgb(0,0,0)"	r="30.0" cx="3723.4468922286583" cy="828.2822569643408" />
<circle  fill="rgb(128,128,128)"	stroke="rgb(128,128,128)"	r="50.0" cx="3858.484838468642" cy="995.0402328004295" />
<circle  fill="rgb(255,255,255)"	stroke="rgb(0,0,0)"	r="30.0" cx="3858.484838468642" cy="995.0402328004295" />
<circle  fill="rgb(128,128,128)"	stroke="rgb(128,128,128)"	r="50.0" cx="3753.5167164233308" cy="1217.7424921166175" />
<circle  fill="rgb(255,255,255)"	stroke="rgb(0,0,0)"	r="30.0" cx="3753.5167164233308" cy="1217.7424921166175" />
<circle  fill="rgb(128,128,128)"	stroke="rgb(128,128,128)"	r="50.0" cx="3383.3097948817535" cy="1451.8169145610798" />
<circle  fill="rgb(255,255,255)"	stroke="rgb(0,0,0)"	r="30.0" cx="3383.3097948817535" cy="1451.8169145610798" />
<circle  fill="rgb(128,128,128)"	stroke="rgb(128,128,128)"	r="50.0" cx="3827.4183130966685" cy="1345.7438123153024" />
<circle  fill="rgb(255,255,255)"	stroke="rgb(0,0,0)"	r="30.0" cx="3827.4183130966685" cy="1345.7438123153024" />
<circle  fill="rgb(128,128,128)"	stroke="rgb(128,128,128)"	r="50.0" cx="3439.600456112805" cy="1549.3151998049093" />
<circle  fill="rgb(255,255,255)"	stroke="rgb(0,0,0)"	r="30.0" cx="3439.600456112805" cy="1549.3151998049093" />
<circle  fill="rgb(128,128,128)"	stroke="rgb(128,128,128)"	r="50.0" cx="3897.409791417499" cy="1219.999999999999" />
<circle  fill="rgb(255,255,255)"	stroke="rgb(0,0,0)"	r="30.0" cx="3897.409791417499" cy="1219.999999999999" />
<circle  fill="rgb(128,128,128)"	stroke="rgb(128,128,128)"	r="50.0" cx="4072.768188167332" cy="1366.1898816946095" />
<circle  fill="rgb(255,255,255)"	stroke="rgb(0,0,0)"	r="30.0" cx="4072.768188167332" cy="1366.1898816946095" />
<circle  fill="rgb(128,128,128)"	stroke="rgb(128,128,128)"	r="50.0" cx="4149.665858405065" cy="1566.5151615313575" />
<circle  fill="rgb(255,255,255)"	stroke="rgb(0,0,0)"	r="30.0" cx="4149.665858405065" cy="1566.5151615313575" />
<circle  fill="rgb(128,128,128)"	stroke="rgb(128,128,128)"	r="50.0" cx="4205.202581504302" cy="1773.7810338235922" />
<circle  fill="rgb(255,255,255)"	stroke="rgb(0,0,0)"	r="30.0" cx="4205.202581504302" cy="1773.7810338235922" />
<circle  fill="rgb(128,128,128)"	stroke="rgb(128,128,128)"	r="50.0" cx="4238.76988550496" cy="1985.7166503013104" />
<circle  fill="rgb(255,255,255)"	stroke="rgb(0,0,0)"	r="30.0" cx="4238.76988550496" cy="1985.7166503013104" />
<circle  fill="rgb(128,128,128)"	stroke="rgb(128,128,128)"	r="50.0" cx="4032.0571860817536" cy="2052.316328166558" />
<circle  fill="rgb(255,255,255)"	stroke="rgb(0,0,0)"	r="30.0" cx="4032.0571860817536" cy="2052.316328166558" />
<circle  fill="rgb(128,128,128)"	stroke="rgb(128,128,128)"	r="50.0" cx="3595.473373511673" cy="2087.509716775398" />
<circle  fill="rgb(255,255,255)"	stroke="rgb(0,0,0)"	r="30.0" cx="3595.473373511673" cy="2087.509716775398" />
<circle  fill="rgb(128,128,128)"	stroke="rgb(128,128,128)"	r="50.0" cx="4038.0" cy="2200.0" />
<circle  fill="rgb(255,255,255)"	stroke="rgb(0,0,0)"	r="30.0" cx="4038.0" cy="2200.0" />
<circle  fill="rgb(128,128,128)"	stroke="rgb(128,128,128)"	r="50.0" cx="3600.0" cy="2200.0" />
<circle  fill="rgb(255,255,255)"	stroke="rgb(0,0,0)"	r="30.0" cx="3600.0" cy="2200.0" />
<circle  fill="rgb(128,128,128)"	stroke="rgb(128,128,128)"	r="50.0" cx="4032.0571860817536" cy="2347.683671833442" />
<circle  fill="rgb(255,255,255)"	stroke="rgb(0,0,0)"	r="30.0" cx="4032.0571860817536" cy="2347.683671833442" />
<circle  fill="rgb(128,128,128)"	stroke="rgb(128,128,128)"	r="50.0" cx="3595.473373511673" cy="2312.490283224602" />
<circle  fill="rgb(255,255,255)"	stroke="rgb(0,0,0)"	r="30.0" cx="3595.473373511673" cy="2312.490283224602" />
<circle  fill="rgb(128,128,128)"	stroke="rgb(128,128,128)"	r="50.0" cx="3881.0761563248784" cy="2943.1197458256456" />
<circle  fill="rgb(255,255,255)"	stroke="rgb(0,0,0)"	r="30.0" cx="3881.0761563248784" cy="2943.1197458256456" />
<circle  fill="rgb(128,128,128)"	stroke="rgb(128,128,128)"	r="50.0" cx="3480.471501009157" cy="2766.032450574485" />
<circle  fill="rgb(255,255,255)"	stroke="rgb(0,0,0)"	r="30.0" cx="3480.471501009157" cy="2766.032450574485" />
<circle  fill="rgb(128,128,128)"	stroke="rgb(128,128,128)"	r="50.0" cx="3836.7191287924543" cy="3036.2980888683583" />
<circle  fill="rgb(255,255,255)"	stroke="rgb(0,0,0)"	r="30.0" cx="3836.7191287924543" cy="3036.2980888683583" />
<circle  fill="rgb(128,128,128)"	stroke="rgb(128,128,128)"	r="50.0" cx="3684.0986561012837" cy="3284.294784160822" />
<circle  fill="rgb(255,255,255)"	stroke="rgb(0,0,0)"	r="30.0" cx="3684.0986561012837" cy="3284.294784160822" />
<circle  fill="rgb(128,128,128)"	stroke="rgb(128,128,128)"	r="50.0" cx="3403.304750612425" cy="2915.5820548012434" />
<circle  fill="rgb(128,128,128)"	stroke="rgb(128,128,128)"	r="50.0" cx="3381.03334579648" cy="2951.771398841943" />
<circle  fill="rgb(255,255,255)"	stroke="rgb(0,0,0)"	r="30.0" cx="3403.304750612425" cy="2915.5820548012434" />
<circle  fill="rgb(255,255,255)"	stroke="rgb(0,0,0)"	r="30.0" cx="3381.03334579648" cy="2951.771398841943" />
<circle  fill="rgb(128,128,128)"	stroke="rgb(128,128,128)"	r="50.0" cx="3242.2038100965965" cy="3713.9535059638183" />
<circle  fill="rgb(255,255,255)"	stroke="rgb(0,0,0)"	r="30.0" cx="3242.2038100965965" cy="3713.9535059638183" />
<circle  fill="rgb(128,128,128)"	stroke="rgb(128,128,128)"	r="50.0" cx="2990.0202912648842" cy="3859.5517284464945" />
<circle  fill="rgb(255,255,255)"	stroke="rgb(0,0,0)"	r="30.0" cx="2990.0202912648842" cy="3859.5517284464945" />
<circle  fill="rgb(128,128,128)"	stroke="rgb(128,128,128)"	r="50.0" cx="2918.3195411920606" cy="3401.672599646687" />
<circle  fill="rgb(128,128,128)"	stroke="rgb(128,128,128)"	r="50.0" cx="2881.519227729688" cy="3422.919270530451" />
<circle  fill="rgb(255,255,255)"	stroke="rgb(0,0,0)"	r="30.0" cx="2918.3195411920606" cy="3401.672599646687" />
<circle  fill="rgb(255,255,255)"	stroke="rgb(0,0,0)"	r="30.0" cx="2881.519227729688" cy="3422.919270530451" />
<circle  fill="rgb(128,128,128)"	stroke="rgb(128,128,128)"	r="50.0" cx="2396.977500223595" cy="4027.4145299864676" />
<circle  fill="rgb(255,255,255)"	stroke="rgb(0,0,0)"	r="30.0" cx="2396.977500223595" cy="4027.4145299864676" />
<circle  fill="rgb(128,128,128)"	stroke="rgb(128,128,128)"	r="50.0" cx="2105.8958257001473" cy="4035.589388828379" />
<circle  fill="rgb(255,255,255)"	stroke="rgb(0,0,0)"	r="30.0" cx="2105.8958257001473" cy="4035.589388828379" />
<circle  fill="rgb(128,128,128)"	stroke="rgb(128,128,128)"	r="50.0" cx="2260.5364563374465" cy="3598.690579597255" />
<circle  fill="rgb(128,128,128)"	stroke="rgb(128,128,128)"	r="50.0" cx="2218.059862643933" cy="3599.88350992548" />
<circle  fill="rgb(255,255,255)"	stroke="rgb(0,0,0)"	r="30.0" cx="2260.5364563374465" cy="3598.690579597255" />
<circle  fill="rgb(255,255,255)"	stroke="rgb(0,0,0)"	r="30.0" cx="2218.059862643933" cy="3599.88350992548" />
<circle  fill="rgb(128,128,128)"	stroke="rgb(128,128,128)"	r="50.0" cx="2003.022499776405" cy="4027.4145299864676" />
<circle  fill="rgb(255,255,255)"	stroke="rgb(0,0,0)"	r="30.0" cx="2003.022499776405" cy="4027.4145299864676" />
<circle  fill="rgb(128,128,128)"	stroke="rgb(128,128,128)"	r="50.0" cx="2049.962731059286" cy="3591.937073983164" />
<circle  fill="rgb(255,255,255)"	stroke="rgb(0,0,0)"	r="30.0" cx="2049.962731059286" cy="3591.937073983164" />
<circle  fill="rgb(128,128,128)"	stroke="rgb(128,128,128)"	r="50.0" cx="1525.073243430912" cy="3909.5958216102226" />
<circle  fill="rgb(255,255,255)"	stroke="rgb(0,0,0)"	r="30.0" cx="1525.073243430912" cy="3909.5958216102226" />
<circle  fill="rgb(128,128,128)"	stroke="rgb(128,128,128)"	r="50.0" cx="1263.5416485041137" cy="3781.5466341254714" />
<circle  fill="rgb(255,255,255)"	stroke="rgb(0,0,0)"	r="30.0" cx="1263.5416485041137" cy="3781.5466341254714" />
<circle  fill="rgb(128,128,128)"	stroke="rgb(128,128,128)"	r="50.0" cx="1603.5245132623963" cy="3466.5768803042074" />
<circle  fill="rgb(128,128,128)"	stroke="rgb(128,128,128)"	r="50.0" cx="1565.360065727492" cy="3447.8910825174553" />
<circle  fill="rgb(255,255,255)"	stroke="rgb(0,0,0)"	r="30.0" cx="1603.5245132623963" cy="3466.5768803042074" />
<circle  fill="rgb(255,255,255)"	stroke="rgb(0,0,0)"	r="30.0" cx="1565.360065727492" cy="3447.8910825174553" />
<circle  fill="rgb(128,128,128)"	stroke="rgb(128,128,128)"	r="50.0" cx="1176.2541018292995" cy="3726.4954425017672" />
<circle  fill="rgb(255,255,255)"	stroke="rgb(0,0,0)"	r="30.0" cx="1176.2541018292995" cy="3726.4954425017672" />
<circle  fill="rgb(128,128,128)"	stroke="rgb(128,128,128)"	r="50.0" cx="1420.2153115130682" cy="3362.7277581623907" />
<circle  fill="rgb(255,255,255)"	stroke="rgb(0,0,0)"	r="30.0" cx="1420.2153115130682" cy="3362.7277581623907" />
<circle  fill="rgb(128,128,128)"	stroke="rgb(128,128,128)"	r="50.0" cx="1056.9099665663623" cy="3639.301627687777" />
<circle  fill="rgb(255,255,255)"	stroke="rgb(0,0,0)"	r="30.0" cx="1056.9099665663623" cy="3639.301627687777" />
<circle  fill="rgb(128,128,128)"	stroke="rgb(128,128,128)"	r="50.0" cx="1329.3111823682848" cy="3296.312447640309" />
<circle  fill="rgb(255,255,255)"	stroke="rgb(0,0,0)"	r="30.0" cx="1329.3111823682848" cy="3296.312447640309" />
<circle  fill="rgb(128,128,128)"	stroke="rgb(128,128,128)"	r="50.0" cx="807.823192225294" cy="3400.0365560657847" />
<circle  fill="rgb(255,255,255)"	stroke="rgb(0,0,0)"	r="30.0" cx="807.823192225294" cy="3400.0365560657847" />
<circle  fill="rgb(128,128,128)"	stroke="rgb(128,128,128)"	r="50.0" cx="635.7696033785016" cy="3165.104795493914" />
<circle  fill="rgb(255,255,255)"	stroke="rgb(0,0,0)"	r="30.0" cx="635.7696033785016" cy="3165.104795493914" />
<circle  fill="rgb(128,128,128)"	stroke="rgb(128,128,128)"	r="50.0" cx="1083.190278776781" cy="3044.2369611556437" />
<circle  fill="rgb(128,128,128)"	stroke="rgb(128,128,128)"	r="50.0" cx="1058.0830630823511" cy="3009.9541401712904" />
<circle  fill="rgb(255,255,255)"	stroke="rgb(0,0,0)"	r="30.0" cx="1083.190278776781" cy="3044.2369611556437" />
<circle  fill="rgb(255,255,255)"	stroke="rgb(0,0,0)"	r="30.0" cx="1058.0830630823511" cy="3009.9541401712904" />
<circle  fill="rgb(128,128,128)"	stroke="rgb(128,128,128)"	r="50.0" cx="584.0690969150044" cy="3075.7918225554004" />
<circle  fill="rgb(255,255,255)"	stroke="rgb(0,0,0)"	r="30.0" cx="584.0690969150044" cy="3075.7918225554004" />
<circle  fill="rgb(128,128,128)"	stroke="rgb(128,128,128)"	r="50.0" cx="969.1494753433112" cy="2867.0884393784336" />
<circle  fill="rgb(255,255,255)"	stroke="rgb(0,0,0)"	r="30.0" cx="969.1494753433112" cy="2867.0884393784336" />
<circle  fill="rgb(128,128,128)"	stroke="rgb(128,128,128)"	r="50.0" cx="518.9238436751211" cy="2943.1197458256447" />
<circle  fill="rgb(255,255,255)"	stroke="rgb(0,0,0)"	r="30.0" cx="518.9238436751211" cy="2943.1197458256447" />
<circle  fill="rgb(128,128,128)"	stroke="rgb(128,128,128)"	r="50.0" cx="919.528498990843" cy="2766.0324505744848" />
<circle  fill="rgb(255,255,255)"	stroke="rgb(0,0,0)"	r="30.0" cx="919.528498990843" cy="2766.0324505744848" />
<circle  fill="rgb(128,128,128)"	stroke="rgb(128,128,128)"	r="50.0" cx="464.6494530896882" cy="2805.6422040595276" />
<circle  fill="rgb(255,255,255)"	stroke="rgb(0,0,0)"	r="30.0" cx="464.6494530896882" cy="2805.6422040595276" />
<circle  fill="rgb(128,128,128)"	stroke="rgb(128,128,128)"	r="50.0" cx="878.1878315155407" cy="2661.316151079074" />
<circle  fill="rgb(255,255,255)"	stroke="rgb(0,0,0)"	r="30.0" cx="878.1878315155407" cy="2661.316151079074" />
<circle  fill="rgb(128,128,128)"	stroke="rgb(128,128,128)"	r="50.0" cx="371.85125458231846" cy="2390.0425337332604" />
<circle  fill="rgb(255,255,255)"	stroke="rgb(0,0,0)"	r="30.0" cx="371.85125458231846" cy="2390.0425337332604" />
<circle  fill="rgb(128,128,128)"	stroke="rgb(128,128,128)"	r="50.0" cx="807.5036759604168" cy="2344.754922321308" />
<circle  fill="rgb(255,255,255)"	stroke="rgb(0,0,0)"	r="30.0" cx="807.5036759604168" cy="2344.754922321308" />
<circle  fill="rgb(128,128,128)"	stroke="rgb(128,128,128)"	r="50.0" cx="363.8731593531079" cy="2282.959177045476" />
<circle  fill="rgb(255,255,255)"	stroke="rgb(0,0,0)"	r="30.0" cx="363.8731593531079" cy="2282.959177045476" />
<circle  fill="rgb(128,128,128)"	stroke="rgb(128,128,128)"	r="50.0" cx="801.4267807912681" cy="2263.1897975319184" />
<circle  fill="rgb(255,255,255)"	stroke="rgb(0,0,0)"	r="30.0" cx="801.4267807912681" cy="2263.1897975319184" />
<circle  fill="rgb(128,128,128)"	stroke="rgb(128,128,128)"	r="50.0" cx="371.85125458231846" cy="2009.95746626674" />
<circle  fill="rgb(255,255,255)"	stroke="rgb(0,0,0)"	r="30.0" cx="371.85125458231846" cy="2009.95746626674" />
<circle  fill="rgb(128,128,128)"	stroke="rgb(128,128,128)"	r="50.0" cx="807.5036759604168" cy="2055.2450776786923" />
<circle  fill="rgb(255,255,255)"	stroke="rgb(0,0,0)"	r="30.0" cx="807.5036759604168" cy="2055.2450776786923" />
<circle  fill="rgb(128,128,128)"	stroke="rgb(128,128,128)"	r="50.0" cx="544.3651807499577" cy="1401.8036925123747" />
<circle  fill="rgb(255,255,255)"	stroke="rgb(0,0,0)"	r="30.0" cx="544.3651807499577" cy="1401.8036925123747" />
<circle  fill="rgb(128,128,128)"	stroke="rgb(128,128,128)"	r="50.0" cx="938.907101768194" cy="1592.0158702488163" />
<circle  fill="rgb(255,255,255)"	stroke="rgb(0,0,0)"	r="30.0" cx="938.907101768194" cy="1592.0158702488163" />
<circle  fill="rgb(128,128,128)"	stroke="rgb(128,128,128)"	r="50.0" cx="680.9243108837595" cy="1165.2763408832197" />
<circle  fill="rgb(255,255,255)"	stroke="rgb(0,0,0)"	r="30.0" cx="680.9243108837595" cy="1165.2763408832197" />
<circle  fill="rgb(128,128,128)"	stroke="rgb(128,128,128)"	r="50.0" cx="1042.9238494217973" cy="1411.853578474705" />
<circle  fill="rgb(255,255,255)"	stroke="rgb(0,0,0)"	r="30.0" cx="1042.9238494217973" cy="1411.853578474705" />
<circle  fill="rgb(128,128,128)"	stroke="rgb(128,128,128)"	r="50.0" cx="1121.3439652785949" cy="711.7980114382674" />
<circle  fill="rgb(255,255,255)"	stroke="rgb(0,0,0)"	r="30.0" cx="1121.3439652785949" cy="711.7980114382674" />
<circle  fill="rgb(128,128,128)"	stroke="rgb(128,128,128)"	r="50.0" cx="1378.3903979271126" cy="1066.4402698659273" />
<circle  fill="rgb(255,255,255)"	stroke="rgb(0,0,0)"	r="30.0" cx="1378.3903979271126" cy="1066.4402698659273" />
<circle  fill="rgb(128,128,128)"	stroke="rgb(128,128,128)"	r="50.0" cx="1353.7813344749875" cy="568.3879229065915" />
<circle  fill="rgb(255,255,255)"	stroke="rgb(0,0,0)"	r="30.0" cx="1353.7813344749875" cy="568.3879229065915" />
<circle  fill="rgb(128,128,128)"	stroke="rgb(128,128,128)"	r="50.0" cx="1555.4373603182712" cy="957.2051643466964" />
<circle  fill="rgb(255,255,255)"	stroke="rgb(0,0,0)"	r="30.0" cx="1555.4373603182712" cy="957.2051643466964" />
<circle  fill="rgb(128,128,128)"	stroke="rgb(128,128,128)"	r="50.0" cx="1450.5072893037236" cy="521.7554777050073" />
<circle  fill="rgb(255,255,255)"	stroke="rgb(0,0,0)"	r="30.0" cx="1450.5072893037236" cy="521.7554777050073" />
<circle  fill="rgb(128,128,128)"	stroke="rgb(128,128,128)"	r="50.0" cx="1629.1132780333041" cy="921.6853475446194" />
<circle  fill="rgb(255,255,255)"	stroke="rgb(0,0,0)"	r="30.0" cx="1629.1132780333041" cy="921.6853475446194" />
<circle  fill="rgb(128,128,128)"	stroke="rgb(128,128,128)"	r="50.0" cx="1936.605643534104" cy="380.97074982783283" />
<circle  fill="rgb(255,255,255)"	stroke="rgb(0,0,0)"	r="30.0" cx="1936.605643534104" cy="380.97074982783283" />
<circle  fill="rgb(128,128,128)"	stroke="rgb(128,128,128)"	r="50.0" cx="1999.3731778823426" cy="814.4499726653787" />
<circle  fill="rgb(255,255,255)"	stroke="rgb(0,0,0)"	r="30.0" cx="1999.3731778823426" cy="814.4499726653787" />
<circle  fill="rgb(128,128,128)"	stroke="rgb(128,128,128)"	r="50.0" cx="2209.06581044532" cy="362.0223583838215" />
<circle  fill="rgb(255,255,255)"	stroke="rgb(0,0,0)"	r="30.0" cx="2209.06581044532" cy="362.0223583838215" />
<circle  fill="rgb(128,128,128)"	stroke="rgb(128,128,128)"	r="50.0" cx="2206.9054051270123" cy="800.017030325" />
<circle  fill="rgb(255,255,255)"	stroke="rgb(0,0,0)"	r="30.0" cx="2206.9054051270123" cy="800.017030325" />
<circle  fill="rgb(128,128,128)"	stroke="rgb(128,128,128)"	r="50.0" cx="2316.383354025497" cy="365.68843570516196" />
<circle  fill="rgb(255,255,255)"	stroke="rgb(0,0,0)"	r="30.0" cx="2316.383354025497" cy="365.68843570516196" />
<circle  fill="rgb(128,128,128)"	stroke="rgb(128,128,128)"	r="50.0" cx="2288.6489094862327" cy="802.8094722454987" />
<circle  fill="rgb(255,255,255)"	stroke="rgb(0,0,0)"	r="30.0" cx="2288.6489094862327" cy="802.8094722454987" />
<circle  fill="rgb(128,128,128)"	stroke="rgb(128,128,128)"	r="50.0" cx="2463.3943564658953" cy="380.97074982783283" />
<circle  fill="rgb(255,255,255)"	stroke="rgb(0,0,0)"	r="30.0" cx="2463.3943564658953" cy="380.97074982783283" />
<circle  fill="rgb(128,128,128)"	stroke="rgb(128,128,128)"	r="50.0" cx="2400.626822117657" cy="814.4499726653785" />
<circle  fill="rgb(255,255,255)"	stroke="rgb(0,0,0)"	r="30.0" cx="2400.626822117657" cy="814.4499726653785" />
<circle  fill="rgb(128,128,128)"	stroke="rgb(128,128,128)"	r="50.0" cx="3119.0" cy="608.2453078442018" />
<circle  fill="rgb(255,255,255)"	stroke="rgb(0,0,0)"	r="30.0" cx="3119.0" cy="608.2453078442018" />
<circle  fill="rgb(128,128,128)"	stroke="rgb(128,128,128)"	r="50.0" cx="2900.0" cy="987.564434701786" />
<circle  fill="rgb(255,255,255)"	stroke="rgb(0,0,0)"	r="30.0" cx="2900.0" cy="987.564434701786" />
<circle  fill="rgb(128,128,128)"	stroke="rgb(128,128,128)"	r="50.0" cx="3753.5167164233308" cy="1217.7424921166175" />
<circle  fill="rgb(255,255,255)"	stroke="rgb(0,0,0)"	r="30.0" cx="3753.5167164233308" cy="1217.7424921166175" />
<circle  fill="rgb(128,128,128)"	stroke="rgb(128,128,128)"	r="50.0" cx="3383.3097948817535" cy="1451.8169145610798" />
<circle  fill="rgb(255,255,255)"	stroke="rgb(0,0,0)"	r="30.0" cx="3383.3097948817535" cy="1451.8169145610798" />
<circle  fill="rgb(128,128,128)"	stroke="rgb(128,128,128)"	r="50.0" cx="3827.4183130966685" cy="1345.7438123153024" />
<circle  fill="rgb(255,255,255)"	stroke="rgb(0,0,0)"	r="30.0" cx="3827.4183130966685" cy="1345.7438123153024" />
<circle  fill="rgb(128,128,128)"	stroke="rgb(128,128,128)"	r="50.0" cx="3439.600456112805" cy="1549.3151998049093" />
<circle  fill="rgb(255,255,255)"	stroke="rgb(0,0,0)"	r="30.0" cx="3439.600456112805" cy="1549.3151998049093" />
<rect    fill="rgb(128,128,128)"	stroke="rgb(128,128,128)"	x="1910.0" y="1910.0" width="580.0" height="580.0" />
<circle  fill="rgb(255,255,255)"	stroke="rgb(0,0,0)"	r="40.0" cx="2200.0" cy="2200.0" />
</g>
</svg>
